<svg width="121" height="20" viewBox="0 0 121 20" fill="none" xmlns="http://www.w3.org/2000/svg">
<path fill-rule="evenodd" clip-rule="evenodd" d="M15.9719 20V17.725H9L16.6526 1V16.9H18.4472V17.725H16.6526V20H15.9719ZM15.9719 16.9V3.875L10.0107 16.9H15.9719ZM32.0816 14.425C32.0816 15.1917 31.9613 15.9125 31.7206 16.5875C31.48 17.2625 31.1534 17.85 30.7408 18.35C30.3283 18.85 29.8436 19.2458 29.2866 19.5375C28.7297 19.8292 28.135 19.975 27.5024 19.975H22.9232C22.8132 19.975 22.7341 19.925 22.686 19.825C22.6379 19.725 22.6138 19.6167 22.6138 19.5V0.75H21.2524V19.625C21.2524 19.7417 21.2146 19.8333 21.139 19.9C21.0633 19.9667 20.9843 20 20.9018 20C20.8193 20 20.7436 19.9625 20.6749 19.8875C20.6061 19.8125 20.5717 19.725 20.5717 19.625V0.375C20.5717 0.124999 20.6817 0 20.9018 0H27.1105C27.6605 0 28.1796 0.124999 28.6678 0.375C29.156 0.625001 29.5788 0.970831 29.9364 1.4125C30.2939 1.85417 30.5793 2.36666 30.7924 2.95C31.0055 3.53334 31.1121 4.15833 31.1121 4.825C31.1121 5.74167 30.9162 6.5875 30.5243 7.3625C30.1323 8.1375 29.5857 8.725 28.8844 9.125C29.352 9.30833 29.7851 9.575 30.1839 9.925C30.5827 10.275 30.9196 10.6833 31.1946 11.15C31.4697 11.6167 31.6862 12.1292 31.8444 12.6875C32.0025 13.2458 32.0816 13.825 32.0816 14.425ZM30.4727 4.825C30.4727 4.25833 30.3833 3.72917 30.2045 3.2375C30.0258 2.74583 29.7851 2.31667 29.4826 1.95C29.1801 1.58333 28.826 1.29167 28.4203 1.075C28.0146 0.858332 27.578 0.75 27.1105 0.75H23.212V8.875H27.1105C27.5643 8.875 27.9974 8.76667 28.41 8.55C28.8225 8.33333 29.1801 8.04167 29.4826 7.675C29.7851 7.30833 30.0258 6.87917 30.2045 6.3875C30.3833 5.89583 30.4727 5.375 30.4727 4.825ZM31.4422 14.425C31.4422 13.775 31.339 13.1583 31.1327 12.575C30.9265 11.9917 30.6446 11.4833 30.287 11.05C29.9295 10.6167 29.5101 10.275 29.0288 10.025C28.5475 9.775 28.0387 9.65 27.5024 9.65C27.4474 9.65 27.413 9.64167 27.3993 9.625H23.212V19.225H27.5024C28.0525 19.225 28.5647 19.1 29.0391 18.85C29.5135 18.6 29.9295 18.2583 30.287 17.825C30.6446 17.3917 30.9265 16.8833 31.1327 16.3C31.339 15.7167 31.4422 15.0917 31.4422 14.425ZM50.1482 10C50.1482 11.3833 49.9317 12.6833 49.4985 13.9C49.0653 15.1167 48.4775 16.175 47.7349 17.075C46.9923 17.975 46.1191 18.6875 45.1153 19.2125C44.1114 19.7375 43.0388 20 41.8975 20C40.7561 20 39.6835 19.7375 38.6796 19.2125C37.6758 18.6875 36.8026 17.975 36.06 17.075C35.3174 16.175 34.7296 15.1167 34.2964 13.9C33.8632 12.6833 33.6467 11.3833 33.6467 10C33.6467 8.61666 33.8632 7.31667 34.2964 6.1C34.7296 4.88333 35.3174 3.825 36.06 2.925C36.8026 2.025 37.6758 1.3125 38.6796 0.7875C39.6835 0.262497 40.7561 0 41.8975 0C43.0388 0 44.1114 0.262497 45.1153 0.7875C46.1191 1.3125 46.9923 2.025 47.7349 2.925C48.4775 3.825 49.0653 4.88333 49.4985 6.1C49.9317 7.31667 50.1482 8.61666 50.1482 10ZM48.9106 6.425C48.5118 5.30833 47.9652 4.32917 47.2708 3.4875C46.5763 2.64583 45.7685 1.98334 44.8471 1.5C43.9258 1.01666 42.9426 0.775 41.8975 0.775C40.8524 0.775 39.8691 1.01666 38.9478 1.5C38.0265 1.98334 37.2186 2.64583 36.5241 3.4875C35.8297 4.32917 35.2831 5.30833 34.8843 6.425C34.4855 7.54167 34.2861 8.73333 34.2861 10C34.2861 11.2667 34.4855 12.4583 34.8843 13.575C35.2831 14.6917 35.8297 15.6708 36.5241 16.5125C37.2186 17.3542 38.0265 18.0167 38.9478 18.5C39.8691 18.9833 40.8524 19.225 41.8975 19.225C42.9426 19.225 43.9258 18.9833 44.8471 18.5C45.7685 18.0167 46.5763 17.3542 47.2708 16.5125C47.9652 15.6708 48.5118 14.6917 48.9106 13.575C49.3094 12.4583 49.5088 11.2667 49.5088 10C49.5088 8.73333 49.3094 7.54167 48.9106 6.425ZM61.9443 15.05C61.9443 15.7167 61.8412 16.35 61.6349 16.95C61.4286 17.55 61.1433 18.075 60.7789 18.525C60.4145 18.975 59.9882 19.3333 59.5 19.6C59.0118 19.8667 58.4927 20 57.9427 20H56.3544C55.7906 20 55.2612 19.8708 54.7661 19.6125C54.2711 19.3542 53.8379 19 53.4666 18.55C53.0953 18.1 52.8031 17.575 52.59 16.975C52.3768 16.375 52.2702 15.7333 52.2702 15.05V0.375C52.2702 0.274999 52.3012 0.1875 52.3631 0.1125C52.4249 0.0374996 52.4971 0 52.5796 0C52.6622 0 52.7344 0.0374996 52.7962 0.1125C52.8581 0.1875 52.8891 0.274999 52.8891 0.375V15.05C52.8891 15.6167 52.9819 16.1542 53.1675 16.6625C53.3532 17.1708 53.6041 17.6167 53.9204 18C54.2367 18.3833 54.6045 18.6875 55.0239 18.9125C55.4434 19.1375 55.8868 19.25 56.3544 19.25H57.9427C58.4102 19.25 58.8502 19.1375 59.2628 18.9125C59.6753 18.6875 60.0329 18.3833 60.3354 18C60.6379 17.6167 60.8786 17.1708 61.0573 16.6625C61.2361 16.1542 61.3255 15.6167 61.3255 15.05V0.375C61.3255 0.274999 61.3564 0.1875 61.4183 0.1125C61.4802 0.0374996 61.5524 0 61.6349 0C61.7174 0 61.7896 0.0374996 61.8515 0.1125C61.9134 0.1875 61.9443 0.274999 61.9443 0.375V15.05ZM74.2354 0.375C74.2354 0.475001 74.2045 0.5625 74.1426 0.6375C74.0807 0.7125 74.0085 0.75 73.926 0.75H63.7775C63.695 0.75 63.6228 0.7125 63.5609 0.6375C63.4991 0.5625 63.4681 0.475001 63.4681 0.375C63.4681 0.274999 63.4991 0.1875 63.5609 0.1125C63.6228 0.0374996 63.695 0 63.7775 0H73.926C74.0085 0 74.0807 0.0374996 74.1426 0.1125C74.2045 0.1875 74.2354 0.274999 74.2354 0.375ZM121 0.48227C121 0.595745 120.656 0.699763 119.967 0.794326C119.278 0.888889 118.474 0.93617 117.556 0.93617H64.2884V19.5745C64.2884 19.6879 63.9058 19.7872 63.1404 19.8723C62.3751 19.9574 61.5332 20 60.6148 20C59.6964 20 58.8545 19.9622 58.0892 19.8865C57.3238 19.8109 56.9412 19.7069 56.9412 19.5745V0.93617H3.44402C2.52561 0.93617 1.72201 0.888889 1.03321 0.794326C0.344399 0.699763 0 0.595745 0 0.48227C0 0.368794 0.306132 0.260048 0.918406 0.156028C1.53068 0.0520089 2.37254 0 3.44402 0H117.556C118.627 0 119.469 0.0520089 120.082 0.156028C120.694 0.260048 121 0.368794 121 0.48227ZM76.5018 19.625C76.5018 19.7417 76.4674 19.8333 76.3987 19.9C76.3299 19.9667 76.2543 20 76.1718 20C76.0893 20 76.0171 19.9625 75.9552 19.8875C75.8933 19.8125 75.8624 19.725 75.8624 19.625V0.375C75.8624 0.274999 75.8933 0.1875 75.9552 0.1125C76.0171 0.0374996 76.0893 0 76.1718 0C76.2543 0 76.3299 0.033333 76.3987 0.1C76.4674 0.166667 76.5018 0.258333 76.5018 0.375V19.625ZM95.0429 9.9C95.0429 12.5333 94.2866 14.8167 92.7739 16.75C92.8289 16.85 92.9458 17.0458 93.1246 17.3375C93.3033 17.6292 93.4855 17.9292 93.6712 18.2375C93.8568 18.5458 94.0218 18.8375 94.1662 19.1125C94.3106 19.3875 94.3828 19.5583 94.3828 19.625C94.3828 19.725 94.3519 19.8125 94.29 19.8875C94.2281 19.9625 94.1559 20 94.0734 20C93.9496 20 93.8603 19.95 93.8053 19.85C93.7365 19.7333 93.5818 19.475 93.3412 19.075C93.1005 18.675 92.822 18.2083 92.5058 17.675C92.1895 17.1417 91.8526 16.5792 91.495 15.9875C91.1375 15.3958 90.8109 14.8417 90.5153 14.325C90.2196 13.8083 89.9755 13.3708 89.783 13.0125C89.5905 12.6542 89.4942 12.45 89.4942 12.4C89.4942 12.3 89.5252 12.2125 89.587 12.1375C89.6489 12.0625 89.7211 12.025 89.8036 12.025C89.9274 12.025 90.0168 12.0833 90.0718 12.2L92.382 16.1C93.0421 15.25 93.5405 14.2958 93.8775 13.2375C94.2144 12.1792 94.3828 11.0667 94.3828 9.9C94.3828 8.64999 94.1834 7.47084 93.7846 6.3625C93.3858 5.25416 92.8461 4.2875 92.1654 3.4625C91.4847 2.6375 90.6872 1.98334 89.7727 1.5C88.8582 1.01666 87.8853 0.775 86.854 0.775C85.8226 0.775 84.8497 1.01666 83.9353 1.5C83.0208 1.98334 82.2232 2.6375 81.5425 3.4625C80.8618 4.2875 80.3221 5.25416 79.9233 6.3625C79.5245 7.47084 79.3251 8.64999 79.3251 9.9C79.3251 11.15 79.5245 12.3292 79.9233 13.4375C80.3221 14.5458 80.8618 15.5125 81.5425 16.3375C82.2232 17.1625 83.0208 17.8167 83.9353 18.3C84.8497 18.7833 85.8226 19.025 86.854 19.025C87.4453 19.025 88.0228 18.9375 88.5866 18.7625C89.1504 18.5875 89.7005 18.3583 90.2368 18.075C90.1818 17.975 90.0615 17.775 89.8758 17.475C89.6902 17.175 89.477 16.8208 89.2364 16.4125C88.9957 16.0042 88.7448 15.5792 88.4835 15.1375C88.2222 14.6958 87.9781 14.2792 87.7512 13.8875C87.5243 13.4958 87.3387 13.1667 87.1943 12.9C87.0499 12.6333 86.9777 12.475 86.9777 12.425C86.9777 12.325 87.0087 12.2333 87.0706 12.15C87.1324 12.0667 87.2115 12.025 87.3078 12.025C87.4315 12.025 87.5209 12.0833 87.5759 12.2C87.6172 12.2833 87.7512 12.5167 87.9781 12.9C88.205 13.2833 88.4766 13.7458 88.7929 14.2875C89.1092 14.8292 89.4461 15.4042 89.8036 16.0125C90.1612 16.6208 90.4912 17.1833 90.7937 17.7C91.0963 18.2167 91.3472 18.6583 91.5466 19.025C91.746 19.3917 91.8457 19.5917 91.8457 19.625C91.8457 19.725 91.8148 19.8125 91.7529 19.8875C91.691 19.9625 91.6188 20 91.5363 20C91.4538 20 91.3678 19.9458 91.2785 19.8375C91.1891 19.7292 91.1031 19.6042 91.0206 19.4625C90.9381 19.3208 90.859 19.1792 90.7834 19.0375C90.7078 18.8958 90.6493 18.7833 90.6081 18.7C90.0305 19.0667 89.4255 19.3458 88.7929 19.5375C88.1603 19.7292 87.514 19.825 86.854 19.825C85.7126 19.825 84.6469 19.5667 83.6568 19.05C82.6667 18.5333 81.8038 17.825 81.0681 16.925C80.3324 16.025 79.7514 14.975 79.3251 13.775C78.8988 12.575 78.6857 11.2833 78.6857 9.9C78.6857 8.53333 78.8988 7.25001 79.3251 6.05C79.7514 4.84999 80.3358 3.8 81.0784 2.9C81.821 2 82.6873 1.29167 83.6774 0.775C84.6675 0.258331 85.7264 0 86.854 0C87.9816 0 89.0439 0.258331 90.0408 0.775C91.0378 1.29167 91.9076 1.99583 92.6501 2.8875C93.3927 3.77917 93.9771 4.82916 94.4034 6.0375C94.8297 7.24584 95.0429 8.53333 95.0429 9.9ZM106.921 15.05C106.921 15.7167 106.818 16.35 106.612 16.95C106.406 17.55 106.12 18.075 105.756 18.525C105.392 18.975 104.965 19.3333 104.477 19.6C103.989 19.8667 103.47 20 102.92 20H101.332C100.768 20 100.238 19.8708 99.7432 19.6125C99.2482 19.3542 98.815 19 98.4437 18.55C98.0724 18.1 97.7802 17.575 97.5671 16.975C97.3539 16.375 97.2474 15.7333 97.2474 15.05V0.375C97.2474 0.274999 97.2783 0.1875 97.3402 0.1125C97.4021 0.0374996 97.4743 0 97.5568 0C97.6393 0 97.7115 0.0374996 97.7734 0.1125C97.8352 0.1875 97.8662 0.274999 97.8662 0.375V15.05C97.8662 15.6167 97.959 16.1542 98.1446 16.6625C98.3303 17.1708 98.5812 17.6167 98.8975 18C99.2138 18.3833 99.5817 18.6875 100.001 18.9125C100.42 19.1375 100.864 19.25 101.332 19.25H102.92C103.387 19.25 103.827 19.1375 104.24 18.9125C104.652 18.6875 105.01 18.3833 105.313 18C105.615 17.6167 105.856 17.1708 106.034 16.6625C106.213 16.1542 106.303 15.6167 106.303 15.05V0.375C106.303 0.274999 106.334 0.1875 106.395 0.1125C106.457 0.0374996 106.53 0 106.612 0C106.695 0 106.767 0.0374996 106.829 0.1125C106.89 0.1875 106.921 0.274999 106.921 0.375V15.05ZM120.574 19.575C120.574 19.675 120.546 19.7708 120.491 19.8625C120.436 19.9542 120.361 20 120.265 20H110.157C110.061 20 109.982 19.9583 109.92 19.875C109.858 19.7917 109.827 19.6917 109.827 19.575V0.375C109.827 0.258333 109.862 0.166667 109.93 0.1C109.999 0.033333 110.075 0 110.157 0H120.265C120.347 0 120.419 0.0374996 120.481 0.1125C120.543 0.1875 120.574 0.274999 120.574 0.375C120.574 0.475001 120.543 0.5625 120.481 0.6375C120.419 0.7125 120.347 0.75 120.265 0.75H110.446V8.525H118.099C118.181 8.525 118.253 8.5625 118.315 8.6375C118.377 8.7125 118.408 8.8 118.408 8.9C118.408 9 118.377 9.0875 118.315 9.1625C118.253 9.2375 118.181 9.275 118.099 9.275H110.487L110.467 10.975H118.181C118.401 10.975 118.511 11.1083 118.511 11.375C118.511 11.475 118.477 11.5667 118.408 11.65C118.339 11.7333 118.264 11.775 118.181 11.775H110.446V19.15H120.265C120.347 19.15 120.419 19.1958 120.481 19.2875C120.543 19.3792 120.574 19.475 120.574 19.575Z" fill="white"/>
</svg>
