<?xml version="1.0" standalone="no"?>
<!DOCTYPE svg PUBLIC "-//W3C//DTD SVG 20010904//EN"
 "http://www.w3.org/TR/2001/REC-SVG-20010904/DTD/svg10.dtd">
<svg version="1.0" xmlns="http://www.w3.org/2000/svg"
 width="4352.000000pt" height="4352.000000pt" viewBox="0 0 4352.000000 4352.000000"
 preserveAspectRatio="xMidYMid meet">
<metadata>
Created by potrace 1.11, written by Peter Selinger 2001-2013
</metadata>
<g transform="translate(0.000000,4352.000000) scale(0.100000,-0.100000)"
fill="#000000" stroke="none">
<path d="M4559 24948 c-15 -6 -34 -23 -43 -39 -15 -25 -16 -282 -16 -3141 0
-2451 3 -3118 13 -3137 22 -44 63 -66 123 -66 49 0 57 3 91 38 l38 37 0 3038
0 3037 48 6 c27 3 51 1 53 -3 3 -5 10 -5 16 -2 6 4 38 6 72 5 75 -3 97 -3 167
0 31 1 60 0 65 -4 6 -3 16 -2 22 2 7 4 29 5 49 2 l37 -6 0 -3025 c1 -2868 2
-3027 19 -3057 38 -70 -38 -66 1035 -65 532 0 987 3 1012 6 105 14 136 18 155
22 11 2 34 7 50 9 219 39 581 210 746 355 170 148 226 207 321 339 26 36 52
71 58 78 5 7 10 15 10 18 0 3 15 29 33 58 47 74 111 212 145 312 40 119 79
283 80 335 0 8 4 42 8 75 12 95 7 385 -6 385 -3 0 -6 20 -7 45 -4 81 -59 278
-115 410 -173 410 -462 724 -848 920 -66 34 -220 95 -238 95 -23 0 -3 19 49
45 44 22 106 61 225 142 110 75 302 305 387 464 34 63 105 225 113 258 2 9 12
50 24 93 32 122 47 258 44 416 -1 81 -5 156 -7 167 -3 11 -8 40 -12 65 -12 71
-35 162 -54 211 -5 15 -7 30 -4 33 4 3 1 6 -5 6 -7 0 -11 3 -10 8 5 24 -141
311 -164 320 -4 2 -8 8 -8 14 0 18 -106 149 -190 236 -131 136 -337 272 -515
341 -33 12 -69 26 -80 31 -44 18 -185 51 -270 64 -115 18 -2673 21 -2716 4z
m1116 -229 c17 0 56 1 87 2 31 0 61 -1 65 -4 5 -3 15 -2 22 3 8 4 26 4 41 0
15 -4 33 -4 40 0 7 4 25 4 40 0 15 -4 33 -4 40 0 7 4 24 4 39 1 14 -4 43 -4
64 -1 20 4 39 5 41 1 3 -3 37 -4 76 -1 39 3 74 2 77 -2 2 -5 9 -5 15 -2 11 7
217 8 224 2 2 -3 21 -2 42 1 20 4 55 4 78 1 22 -4 49 -3 60 0 10 4 31 4 45 0
15 -4 32 -4 39 0 7 4 25 4 40 0 15 -4 33 -4 40 0 7 4 25 4 40 0 15 -4 33 -4
41 0 7 5 16 7 20 4 4 -2 56 -6 116 -9 59 -2 119 -7 133 -10 14 -2 48 -9 75
-14 126 -24 308 -100 436 -183 35 -23 66 -44 69 -47 3 -3 27 -24 55 -46 61
-49 106 -94 166 -165 46 -56 144 -193 141 -198 -1 -1 4 -12 13 -25 16 -25 106
-237 101 -237 -2 0 2 -21 10 -47 46 -150 53 -409 16 -583 -25 -115 -95 -310
-112 -310 -4 0 -7 -6 -7 -12 0 -30 -133 -221 -210 -303 -45 -47 -115 -110
-162 -145 -19 -14 -39 -29 -45 -35 -12 -10 -25 -18 -105 -63 -77 -43 -96 -52
-108 -52 -7 0 -13 -4 -13 -10 0 -5 -6 -10 -14 -10 -8 0 -25 -4 -38 -9 -13 -5
-26 -8 -29 -7 -3 0 -12 -4 -20 -10 -13 -11 -142 -46 -220 -61 -19 -3 -410 -7
-871 -9 -777 -2 -836 -1 -840 14 -6 29 -2 2567 4 2577 3 6 30 9 60 7 29 -1 67
-3 83 -3z m297 -2839 c123 0 230 1 238 1 8 0 80 0 160 0 80 -1 152 -1 160 0 8
0 116 0 240 0 124 0 232 0 240 0 8 1 76 -2 150 -5 202 -10 280 -19 395 -47
131 -33 171 -48 323 -121 76 -37 218 -124 247 -151 7 -7 32 -28 56 -47 171
-138 336 -363 428 -585 27 -65 56 -146 67 -187 1 -5 2 -9 4 -10 1 -2 3 -12 4
-23 2 -11 6 -36 11 -55 26 -112 37 -382 21 -495 -11 -71 -16 -100 -21 -125 -3
-14 -8 -36 -11 -50 -3 -14 -8 -34 -11 -45 -4 -11 -7 -22 -8 -25 -8 -45 -95
-252 -109 -262 -6 -4 -8 -8 -4 -8 4 0 -5 -21 -21 -47 -15 -27 -34 -59 -42 -72
-8 -14 -19 -32 -26 -40 -7 -9 -32 -43 -57 -76 -86 -114 -225 -246 -351 -331
-140 -96 -387 -205 -510 -227 -16 -3 -41 -8 -54 -11 -13 -3 -49 -8 -80 -12
-31 -3 -65 -8 -76 -10 -16 -3 -1526 -7 -1760 -5 l-50 1 0 1535 0 1536 97 -2
c54 -2 101 0 104 4 4 3 11 4 15 1 5 -3 109 -5 231 -4z"/>
<path d="M12579 24956 c-2 -2 -40 -6 -84 -10 -89 -7 -162 -16 -255 -31 -33 -6
-52 -9 -110 -21 -350 -68 -802 -257 -1103 -461 -26 -18 -50 -33 -53 -33 -3 0
-10 -5 -17 -10 -7 -6 -37 -29 -67 -51 -366 -268 -707 -657 -910 -1039 -14 -25
-30 -52 -36 -60 -7 -8 -13 -17 -13 -20 0 -3 -21 -50 -46 -105 -45 -95 -134
-313 -140 -345 -2 -8 -4 -16 -5 -17 -2 -2 -3 -6 -5 -10 -1 -5 -4 -15 -7 -23
-19 -56 -65 -226 -74 -277 -5 -29 -12 -61 -18 -91 -3 -13 -10 -60 -16 -105 -6
-45 -13 -95 -16 -112 -23 -159 -23 -614 0 -745 3 -14 8 -52 11 -85 3 -33 8
-67 10 -75 2 -8 7 -31 10 -50 16 -110 91 -397 125 -475 4 -11 23 -58 41 -105
46 -121 160 -355 232 -474 89 -149 223 -339 296 -418 19 -21 41 -48 49 -60 29
-41 246 -253 337 -328 138 -115 128 -107 177 -140 21 -14 38 -28 38 -32 0 -5
4 -8 9 -8 4 0 49 -27 99 -60 51 -33 95 -60 99 -60 3 0 14 -6 22 -14 24 -21
234 -129 341 -175 52 -23 104 -46 115 -51 67 -30 342 -118 392 -125 12 -2 37
-8 55 -14 28 -8 128 -29 178 -36 26 -4 114 -17 140 -21 168 -26 675 -25 824 2
15 2 47 7 70 9 59 7 79 11 191 35 55 12 111 24 125 27 33 7 42 9 60 15 8 3 74
25 145 48 72 23 153 52 180 65 28 12 61 26 75 30 14 4 59 25 102 46 42 22 79
39 82 39 19 0 396 229 456 277 8 7 33 26 55 43 127 97 178 143 326 290 109
109 261 285 312 360 9 14 34 51 57 84 22 32 40 62 40 66 0 5 4 10 8 12 8 3 52
73 103 163 36 65 114 224 149 305 18 41 40 91 48 110 8 19 14 35 13 35 -1 0
13 38 30 85 17 47 32 92 34 100 2 8 20 77 40 153 41 159 68 319 81 477 3 36 8
83 10 105 3 22 5 47 5 55 -2 33 -2 218 0 226 1 5 1 11 -1 14 -1 3 -3 34 -5 70
-4 88 -14 200 -20 229 -2 13 -7 49 -11 80 -9 85 -9 86 -18 99 -4 6 -5 12 -3
12 4 0 -19 113 -48 235 -11 48 -57 194 -75 240 -61 157 -94 231 -149 345 -37
74 -75 149 -85 165 -45 71 -50 80 -51 85 0 8 -115 179 -164 245 -183 245 -423
485 -666 665 -195 144 -459 294 -680 385 -127 53 -275 106 -275 99 0 -4 -6 -2
-12 4 -13 10 -270 76 -338 86 -19 3 -46 8 -60 11 -24 5 -47 8 -150 21 -25 3
-56 8 -70 11 -27 5 -536 14 -541 9z m526 -259 c85 -9 205 -28 265 -42 14 -3
37 -8 52 -10 15 -2 46 -9 70 -15 24 -7 52 -14 63 -16 46 -9 278 -90 375 -131
94 -40 251 -119 337 -169 123 -72 173 -105 269 -176 60 -45 111 -84 114 -87 3
-3 28 -24 55 -46 77 -61 365 -353 365 -370 0 -3 8 -13 18 -23 31 -34 57 -66
102 -132 25 -36 49 -69 53 -75 14 -18 91 -139 114 -180 53 -92 183 -359 187
-385 1 -3 4 -9 7 -15 4 -5 12 -28 19 -50 7 -22 18 -53 25 -70 24 -57 91 -303
99 -361 2 -16 6 -36 9 -44 3 -8 8 -37 12 -65 3 -27 8 -63 10 -80 15 -109 18
-165 20 -375 2 -129 -1 -260 -5 -290 -5 -30 -11 -80 -14 -110 -3 -30 -8 -68
-11 -85 -3 -16 -7 -43 -10 -60 -8 -47 -12 -64 -36 -165 -13 -52 -23 -98 -23
-102 -1 -3 -4 -10 -8 -14 -5 -4 -8 -16 -8 -26 0 -18 -63 -198 -104 -293 -35
-84 -148 -309 -163 -323 -7 -7 -13 -17 -13 -22 0 -8 -73 -130 -93 -155 -4 -5
-36 -50 -71 -100 -35 -49 -72 -99 -83 -110 -10 -11 -36 -43 -58 -70 -47 -60
-272 -286 -334 -335 -24 -19 -48 -40 -55 -45 -63 -58 -334 -245 -355 -245 -6
0 -11 -4 -11 -8 0 -4 -33 -25 -72 -45 -40 -21 -80 -41 -88 -46 -8 -5 -28 -15
-45 -22 -16 -8 -33 -18 -37 -24 -4 -5 -8 -7 -8 -3 0 4 -26 -6 -57 -21 -32 -15
-85 -38 -118 -50 -33 -13 -69 -27 -80 -32 -41 -18 -213 -69 -315 -94 -92 -22
-134 -30 -215 -41 -11 -1 -20 -3 -20 -4 0 -1 -19 -3 -42 -5 -23 -2 -62 -7 -85
-10 -100 -13 -429 -20 -518 -10 -19 2 -71 6 -114 10 -44 4 -89 9 -100 11 -12
3 -37 7 -56 9 -32 4 -148 27 -195 38 -11 3 -42 10 -69 17 -55 12 -170 47 -201
60 -11 5 -31 12 -45 15 -14 4 -38 13 -55 20 -16 7 -82 36 -145 63 -63 27 -135
61 -160 75 -25 13 -78 42 -117 63 -40 21 -73 42 -73 46 0 5 -5 8 -10 8 -10 0
-188 116 -200 129 -3 3 -32 26 -65 51 -127 94 -368 321 -438 413 -12 16 -37
45 -54 65 -18 20 -35 45 -39 55 -3 9 -9 17 -14 17 -11 0 -188 265 -236 355
-56 102 -136 267 -149 305 -1 3 -5 14 -10 25 -44 106 -79 208 -106 305 -7 25
-14 50 -15 55 -6 21 -35 151 -39 175 -2 14 -6 36 -9 49 -3 12 -8 42 -10 65 -3
22 -8 52 -10 66 -18 93 -26 506 -13 645 10 97 24 202 33 250 3 11 11 54 19 95
8 41 19 88 25 105 5 16 11 41 14 55 5 28 72 233 86 265 5 11 21 49 35 85 59
145 171 354 268 500 47 70 158 221 181 246 6 7 31 35 56 65 95 111 291 297
399 379 18 14 38 30 44 36 23 20 126 94 132 94 3 0 11 5 18 11 26 22 147 97
147 91 0 -4 4 -2 8 4 21 33 463 235 567 260 17 4 35 9 40 13 6 3 13 6 18 7 4
1 8 2 10 4 1 1 9 3 17 5 8 2 51 13 95 25 76 20 185 43 269 56 21 3 48 7 60 10
11 2 55 7 96 10 41 4 77 8 79 10 5 4 490 -3 546 -9z"/>
<path d="M16895 24949 c-29 -17 -54 -45 -63 -71 -10 -27 -8 -4827 2 -4913 3
-33 9 -72 12 -85 3 -14 7 -36 8 -50 4 -29 29 -119 58 -205 26 -80 137 -304
175 -354 96 -129 129 -169 202 -242 105 -105 210 -187 326 -255 53 -31 207
-104 220 -104 8 0 16 -4 19 -9 3 -4 20 -12 38 -16 36 -8 45 -11 53 -15 3 -1 8
-3 13 -5 4 -1 14 -4 22 -7 27 -10 114 -28 205 -42 71 -12 189 -14 565 -12 261
1 486 5 500 9 14 4 51 12 83 18 104 18 256 71 352 121 22 11 58 30 80 41 112
58 266 176 373 286 77 79 173 201 193 245 7 14 15 26 19 26 11 0 105 196 139
287 38 104 61 189 77 293 3 19 8 49 11 65 11 64 10 4893 -1 4926 -13 40 -67
79 -110 79 -35 0 -79 -26 -104 -61 -15 -22 -17 -197 -18 -2449 0 -1334 -4
-2447 -8 -2475 -12 -87 -27 -147 -63 -255 -35 -103 -109 -262 -125 -268 -4 -2
-8 -8 -8 -14 0 -6 -20 -38 -44 -72 -142 -198 -310 -341 -514 -438 -89 -42
-192 -81 -192 -71 0 3 -6 1 -12 -4 -14 -11 -54 -22 -103 -29 -16 -2 -41 -6
-55 -10 -14 -3 -90 -7 -168 -9 -79 -2 -146 -6 -149 -9 -3 -2 -15 -1 -28 4 -13
5 -25 6 -28 4 -9 -9 -71 -10 -94 -2 -13 4 -25 3 -28 -3 -4 -5 -11 -6 -17 -3
-10 6 -75 7 -143 1 -16 -1 -40 1 -52 5 -12 4 -25 3 -28 -3 -4 -5 -10 -7 -15
-4 -4 3 -59 7 -122 10 -96 4 -167 15 -273 40 -139 33 -370 152 -505 261 -98
79 -283 293 -314 364 -6 14 -13 27 -16 30 -3 3 -24 43 -47 90 -45 95 -86 215
-102 305 -6 33 -14 71 -17 85 -3 14 -7 1114 -9 2445 -1 1331 -3 2430 -4 2443
-2 38 -52 81 -102 87 -25 3 -52 1 -64 -6z"/>
<path d="M21245 24948 c-34 -19 -72 -79 -66 -103 2 -5 5 -23 7 -39 3 -29 34
-62 71 -76 11 -5 51 -9 87 -9 36 0 69 -2 73 -4 5 -3 17 -1 28 3 11 4 32 4 46
0 15 -4 32 -4 39 0 7 4 25 4 40 0 15 -4 33 -4 40 0 7 4 25 4 40 0 15 -4 33 -4
40 0 7 4 25 4 40 0 15 -4 33 -4 40 0 7 4 25 4 40 0 15 -4 33 -4 40 0 7 4 25 4
40 0 15 -4 33 -4 40 0 7 4 25 4 40 0 15 -4 33 -4 40 0 7 4 24 4 39 1 14 -4 43
-4 64 -1 20 4 39 5 41 1 3 -3 37 -4 76 -1 39 3 74 2 76 -2 3 -5 13 -4 22 0 9
5 30 6 46 3 16 -3 61 -4 99 -1 38 3 70 3 73 -1 2 -3 20 -3 41 0 21 4 56 4 79
1 22 -4 49 -3 60 0 10 4 31 4 45 0 15 -4 32 -4 39 0 7 4 25 4 40 0 15 -4 33
-4 40 0 7 4 25 4 40 0 15 -4 33 -4 40 0 7 4 24 4 39 1 14 -4 43 -4 64 -1 20 4
39 5 41 1 3 -3 37 -4 76 -1 39 3 74 2 76 -2 3 -5 13 -4 22 0 9 5 30 6 46 3 16
-3 61 -4 99 -1 38 3 70 2 73 -1 2 -4 21 -3 41 0 21 4 54 4 73 1 19 -3 57 -3
83 1 26 3 50 3 52 0 2 -4 36 -4 75 -1 39 3 74 2 76 -2 3 -5 13 -4 22 0 9 5 30
6 46 3 16 -3 61 -4 99 -1 38 3 70 2 73 -1 2 -4 21 -3 41 0 21 4 54 4 73 1 19
-3 54 -3 78 1 23 3 45 2 48 -3 3 -4 12 -4 21 1 9 4 30 5 48 1 18 -4 39 -4 46
0 7 5 21 5 33 1 11 -5 35 -5 53 -1 18 5 35 4 38 0 3 -4 21 -4 40 0 20 4 38 4
41 -1 3 -5 10 -6 16 -3 6 4 38 6 72 5 63 -2 85 -2 173 0 28 0 56 -1 60 -4 5
-3 15 -2 22 3 8 4 26 4 41 0 15 -4 33 -4 40 0 7 4 26 4 41 0 16 -5 31 -5 33
-1 3 4 19 6 35 3 58 -8 130 58 125 116 -1 12 -2 28 -3 35 0 7 -15 29 -32 48
l-30 34 -2017 2 c-1507 2 -2022 0 -2037 -9z"/>
<path d="M26037 24920 c-21 -22 -37 -50 -38 -63 0 -12 -1 -1410 -1 -3107 -1
-2913 0 -3087 16 -3122 19 -40 66 -68 114 -68 31 0 111 51 114 73 0 6 2 1412
3 3122 2 3396 7 3146 -55 3184 -16 9 -49 18 -73 19 -40 3 -47 -1 -80 -38z"/>
<path d="M30039 24956 c-2 -2 -33 -6 -69 -10 -36 -3 -90 -9 -120 -12 -59 -6
-319 -56 -385 -74 -22 -6 -92 -28 -155 -48 -63 -20 -117 -37 -120 -37 -3 -1
-18 -7 -35 -14 -16 -8 -39 -17 -50 -22 -139 -57 -188 -80 -295 -136 -69 -36
-135 -71 -147 -77 -13 -6 -23 -14 -23 -18 0 -5 -5 -8 -11 -8 -6 0 -30 -13 -54
-30 -24 -16 -48 -30 -53 -30 -6 0 -12 -4 -14 -8 -1 -4 -34 -29 -73 -56 -135
-94 -262 -202 -410 -352 -163 -164 -180 -183 -290 -330 -41 -54 -78 -103 -83
-109 -23 -29 -152 -243 -152 -252 0 -6 -3 -13 -8 -15 -12 -5 -135 -259 -182
-378 -27 -66 -108 -312 -114 -343 -2 -12 -9 -40 -14 -62 -6 -22 -14 -55 -17
-74 -3 -19 -7 -37 -9 -40 -2 -3 -7 -26 -10 -51 -3 -25 -8 -54 -10 -66 -2 -12
-7 -45 -11 -75 -4 -30 -8 -65 -10 -79 -18 -136 -23 -415 -11 -570 10 -142 21
-247 30 -295 3 -16 7 -43 10 -60 22 -123 63 -300 77 -326 4 -9 10 -27 13 -40
23 -127 208 -539 321 -715 19 -30 35 -57 35 -60 0 -6 201 -287 210 -294 4 -3
31 -34 61 -70 94 -114 286 -301 418 -406 13 -11 29 -25 36 -31 8 -7 16 -13 20
-13 3 0 16 -9 28 -21 31 -29 226 -158 327 -216 144 -83 466 -231 540 -248 8
-2 15 -4 15 -5 0 -1 11 -3 24 -6 14 -2 30 -9 37 -15 6 -5 16 -9 20 -8 5 1 16
-1 24 -4 13 -5 87 -26 115 -33 6 -1 41 -9 78 -18 37 -9 82 -18 100 -20 18 -3
43 -8 57 -11 14 -3 41 -8 60 -10 19 -3 53 -8 75 -12 40 -6 69 -8 205 -19 151
-12 455 -6 585 12 17 2 48 6 70 8 73 9 108 15 225 41 41 9 86 18 100 21 14 3
70 19 125 35 55 16 105 31 110 32 6 2 33 11 60 21 131 49 209 81 309 129 76
36 111 48 114 39 2 -7 10 -19 18 -26 8 -8 14 -17 14 -20 0 -18 154 -229 206
-282 72 -74 115 -89 172 -58 31 17 76 86 68 104 -8 17 -131 216 -136 220 -3 3
-34 46 -68 97 -106 157 -158 231 -209 300 -18 24 -33 45 -33 48 0 3 -7 13 -15
22 -8 10 -53 72 -99 138 -47 66 -92 129 -100 140 -8 11 -53 74 -100 140 -200
283 -391 551 -399 560 -4 6 -118 165 -253 355 -135 190 -253 356 -263 370 -35
49 -126 55 -175 12 -22 -21 -46 -65 -46 -87 0 -17 29 -86 40 -95 3 -3 26 -36
50 -75 25 -38 48 -71 52 -73 5 -2 8 -8 8 -13 0 -9 36 -65 50 -79 3 -3 19 -25
36 -50 17 -25 46 -65 63 -90 17 -25 50 -72 73 -105 23 -33 45 -61 50 -63 4 -2
8 -8 8 -13 0 -6 5 -15 10 -22 6 -7 33 -43 60 -82 27 -38 53 -74 57 -80 4 -5
48 -66 98 -135 49 -69 93 -129 97 -135 11 -13 229 -318 248 -346 13 -19 38
-52 62 -84 34 -44 149 -200 176 -238 29 -41 31 -47 15 -47 -11 0 -23 -4 -29
-9 -8 -9 -181 -78 -214 -86 -8 -3 -55 -18 -105 -35 -89 -31 -117 -39 -290 -85
-100 -26 -228 -50 -320 -61 -33 -3 -73 -8 -90 -11 -85 -13 -519 -5 -626 12
-13 2 -58 9 -99 15 -317 50 -671 177 -960 344 -25 14 -52 29 -60 33 -43 19
-327 219 -360 253 -8 8 -31 27 -50 42 -45 34 -230 217 -297 293 -253 293 -455
641 -578 1000 -34 100 -82 272 -79 288 1 10 -1 17 -5 17 -4 0 -8 6 -8 13 0 13
-10 80 -17 112 -9 44 -17 103 -21 150 -3 28 -8 75 -11 105 -8 67 -8 408 0 470
3 25 8 74 11 110 4 36 11 84 16 107 5 23 11 63 14 89 4 26 9 52 12 58 4 6 8
19 9 31 2 16 16 78 39 165 8 32 78 228 102 285 49 117 132 284 187 376 31 50
56 95 56 99 0 3 8 15 18 26 10 10 29 37 42 59 14 22 32 49 42 60 9 11 34 43
55 71 86 116 261 301 398 424 70 63 252 200 326 245 265 163 436 246 669 327
95 32 284 83 345 92 22 4 47 8 55 11 14 4 60 11 120 20 28 4 121 14 190 20 57
5 362 5 414 1 74 -7 191 -19 206 -22 8 -1 35 -5 60 -9 25 -4 77 -14 115 -22
39 -8 86 -19 105 -23 19 -4 55 -13 80 -20 25 -6 45 -11 45 -10 0 2 15 -4 100
-36 11 -4 27 -8 35 -10 8 -2 23 -7 35 -12 11 -6 47 -20 80 -33 33 -13 71 -29
85 -36 14 -7 31 -13 38 -13 6 0 12 -4 12 -10 0 -5 7 -10 15 -10 29 0 271 -133
400 -220 253 -169 452 -349 644 -580 69 -83 251 -341 251 -356 0 -4 6 -15 14
-23 22 -26 121 -219 171 -334 70 -162 137 -363 161 -482 2 -11 10 -54 19 -95
9 -41 18 -95 21 -120 3 -25 7 -52 9 -60 11 -43 19 -197 19 -380 0 -216 -8
-336 -30 -460 -2 -14 -7 -41 -10 -60 -3 -19 -7 -44 -9 -55 -6 -41 -67 -280
-73 -290 -4 -5 -8 -18 -9 -28 -3 -16 -63 -185 -83 -232 -20 -49 -144 -300
-149 -305 -3 -3 -14 -21 -25 -40 -25 -46 -159 -247 -191 -285 -13 -16 -28 -35
-32 -40 -16 -22 -118 -141 -139 -163 l-22 -22 -81 112 c-85 117 -283 391 -421
583 -43 61 -131 182 -194 270 -63 88 -130 182 -148 208 -18 27 -49 66 -69 88
-31 33 -43 39 -78 39 -58 0 -94 -20 -119 -67 -26 -47 -19 -65 97 -243 20 -30
41 -63 46 -72 24 -43 200 -293 207 -296 4 -2 8 -9 8 -15 0 -7 9 -23 21 -37 11
-14 51 -70 89 -125 79 -113 93 -133 135 -189 17 -23 72 -99 124 -171 52 -71
115 -158 140 -191 25 -34 54 -72 63 -85 9 -13 61 -85 116 -160 54 -75 107
-150 118 -167 10 -18 21 -32 24 -32 3 0 16 -18 30 -40 14 -22 28 -40 32 -40 5
0 8 -6 8 -14 0 -8 3 -16 8 -18 4 -1 36 -43 72 -93 35 -49 68 -91 72 -93 4 -2
8 -8 8 -13 0 -5 22 -38 48 -72 26 -34 63 -84 82 -112 19 -27 39 -55 45 -61 5
-6 28 -37 50 -68 60 -84 143 -100 206 -40 59 57 49 103 -61 269 -33 50 -63 97
-67 105 -3 8 -12 21 -19 30 -7 8 -67 89 -133 180 -66 91 -161 220 -211 287
-49 67 -90 126 -90 131 0 5 23 33 50 62 28 29 50 55 50 57 0 2 8 11 18 21 93
98 261 335 360 509 57 100 162 315 162 332 0 6 5 11 12 11 6 0 9 3 5 6 -3 3 6
36 20 72 26 69 64 179 67 197 1 6 10 37 20 70 10 33 20 71 23 85 2 14 8 41 13
60 71 277 95 755 55 1090 -26 215 -49 328 -112 535 -14 50 -27 92 -28 95 -3
15 -28 86 -34 95 -3 6 -6 15 -7 20 -10 49 -191 424 -235 487 -11 14 -19 29
-19 32 0 8 -162 246 -189 278 -10 13 -46 57 -79 98 -75 93 -253 276 -352 361
-41 35 -77 66 -80 69 -3 3 -41 32 -85 65 -44 33 -81 63 -83 68 -2 4 -7 7 -12
7 -4 0 -48 27 -96 60 -49 33 -95 60 -101 60 -7 0 -13 3 -13 8 0 4 -10 12 -23
18 -203 105 -341 173 -377 187 -25 10 -54 22 -65 27 -76 31 -248 89 -278 94
-6 1 -16 4 -22 8 -5 3 -23 9 -40 12 -63 13 -76 16 -97 22 -31 8 -155 33 -197
40 -18 3 -42 7 -53 9 -11 2 -46 7 -79 10 -33 4 -70 9 -82 12 -24 5 -552 14
-558 9z"/>
<path d="M34395 24953 c-26 -7 -54 -32 -69 -63 -10 -20 -12 -536 -10 -2465 1
-1342 5 -2460 9 -2485 5 -38 21 -118 40 -205 3 -12 14 -48 25 -80 12 -33 24
-69 27 -80 30 -96 200 -379 281 -465 122 -132 217 -214 329 -287 88 -58 272
-153 295 -153 8 0 18 -4 24 -8 9 -8 87 -35 139 -48 17 -4 35 -9 40 -10 6 -2
48 -11 95 -21 74 -15 147 -18 585 -18 531 0 549 1 725 53 30 9 60 17 65 18 26
7 85 31 91 37 4 4 14 7 22 7 9 0 23 6 31 13 9 7 36 22 61 32 25 11 56 27 70
36 14 9 54 35 90 57 36 23 75 50 85 59 11 10 36 30 56 45 89 66 223 215 307
341 86 129 196 369 217 475 2 9 10 51 19 93 8 42 19 100 22 130 10 78 12 4878
2 4914 -25 93 -161 111 -215 28 -17 -26 -18 -135 -19 -2433 -1 -1323 -4 -2436
-8 -2475 -4 -38 -11 -86 -16 -105 -5 -19 -11 -46 -13 -60 -9 -49 -58 -182 -97
-264 -37 -77 -124 -221 -153 -252 -7 -7 -22 -26 -35 -42 -47 -61 -142 -151
-227 -215 -27 -20 -55 -41 -61 -46 -14 -11 -200 -106 -244 -124 -71 -29 -146
-50 -255 -72 -33 -6 -276 -17 -340 -16 -22 1 -47 1 -55 1 -20 0 -67 1 -108 3
-19 2 -36 -1 -38 -5 -3 -4 -15 -4 -27 1 -12 5 -30 5 -41 2 -10 -4 -35 -5 -55
-3 -20 2 -42 3 -48 3 -7 -1 -19 -1 -25 -2 -45 -3 -253 11 -303 20 -115 21
-230 54 -251 72 -8 6 -14 9 -14 6 0 -9 -135 57 -205 100 -91 55 -183 128 -260
207 -104 107 -128 137 -212 271 -82 130 -155 335 -179 500 -4 28 -8 1142 -9
2476 -1 2226 -3 2427 -18 2449 -34 49 -83 67 -142 53z"/>
<path d="M39259 24935 c-20 -13 -41 -37 -46 -52 -5 -17 -9 -1280 -8 -3128 0
-3047 1 -3101 20 -3132 40 -68 -123 -63 2075 -63 1489 0 1997 3 2013 12 82 44
93 162 21 228 l-37 33 -1925 1 -1926 1 -1 1178 0 1177 70 0 c39 1 725 2 1525
3 1438 2 1455 2 1482 22 76 57 79 170 7 214 -31 19 -68 20 -1553 20 l-1521 0
2 168 c4 388 3 373 27 373 11 1 688 2 1504 3 l1484 2 35 39 c32 35 35 42 31
86 -5 51 -35 91 -78 105 -13 4 -697 8 -1519 9 l-1495 1 -1 1233 c0 679 2 1237
5 1241 7 11 60 20 60 11 0 -4 17 -4 38 -1 20 3 55 4 77 1 22 -3 57 -2 78 1 20
4 40 2 43 -2 3 -5 12 -6 21 0 9 4 30 5 48 1 18 -4 39 -4 46 0 7 5 21 5 33 1
11 -5 35 -5 53 -1 18 5 35 4 38 0 3 -4 21 -4 40 0 20 4 38 4 41 -1 3 -5 10 -6
16 -3 6 4 38 6 72 5 63 -2 85 -2 173 0 28 0 56 -1 60 -4 5 -3 15 -2 22 3 8 4
26 4 41 0 15 -4 33 -4 40 0 7 4 25 4 40 0 15 -4 33 -4 40 0 7 4 24 4 39 1 14
-4 43 -4 64 -1 20 4 39 5 41 1 3 -3 37 -4 76 -1 39 3 74 2 76 -2 3 -5 13 -4
22 0 9 5 30 6 46 3 16 -3 61 -4 99 -1 38 3 70 3 73 -1 2 -3 20 -3 41 0 21 4
56 4 79 1 22 -4 49 -3 60 0 10 4 31 4 45 0 15 -4 32 -4 39 0 7 4 25 4 40 0 15
-4 33 -4 40 0 7 4 25 4 40 0 15 -4 33 -4 40 0 7 4 24 4 39 1 14 -4 41 -4 59 0
17 4 35 3 38 -2 3 -5 12 -6 21 0 9 4 30 5 48 1 18 -4 39 -4 46 0 7 5 21 5 33
1 11 -5 35 -5 53 -1 18 5 35 4 38 0 3 -4 21 -4 40 0 20 4 38 4 41 -1 3 -5 10
-6 16 -3 6 4 38 6 72 5 75 -3 95 -3 174 0 34 1 64 0 66 -2 3 -2 37 -2 76 1 40
3 74 2 76 -2 3 -5 13 -4 22 0 9 5 30 6 46 3 16 -3 61 -4 99 -1 38 3 70 2 73
-1 2 -4 21 -3 41 0 21 4 54 4 73 1 19 -3 57 -3 83 1 26 3 50 3 52 0 2 -4 36
-4 75 -1 39 3 74 2 77 -2 2 -5 9 -5 15 -2 9 6 102 7 143 2 20 -2 84 34 98 56
34 51 21 123 -28 160 l-33 26 -2004 0 -2003 0 -36 -25z"/>
<path d="M2962 24618 c-7 -7 -12 -15 -12 -20 0 -4 -13 -29 -28 -55 -16 -26
-46 -79 -67 -118 -21 -38 -45 -81 -52 -95 -8 -14 -24 -43 -36 -65 -13 -22 -38
-69 -57 -105 -19 -36 -38 -67 -41 -70 -3 -3 -12 -18 -21 -35 -24 -49 -90 -169
-98 -180 -7 -9 -46 -80 -94 -170 -11 -22 -23 -42 -26 -45 -3 -3 -17 -27 -31
-55 -55 -104 -64 -120 -70 -125 -4 -3 -9 -15 -13 -27 -4 -13 -13 -29 -19 -36
-7 -7 -21 -30 -32 -52 -11 -22 -42 -78 -69 -125 -26 -47 -53 -94 -58 -105 -5
-11 -14 -29 -21 -40 -24 -41 -223 -398 -252 -453 -16 -31 -33 -58 -37 -60 -5
-2 -8 -7 -8 -12 0 -5 -31 -65 -70 -134 -38 -68 -70 -129 -70 -135 0 -5 -4 -11
-8 -13 -4 -1 -57 -92 -117 -201 -61 -109 -124 -223 -142 -255 -17 -31 -35 -64
-39 -72 -5 -8 -25 -45 -46 -82 -21 -37 -84 -150 -139 -250 -102 -185 -128
-232 -180 -323 -16 -27 -34 -62 -41 -77 -7 -16 -16 -28 -20 -28 -4 0 -8 -9 -8
-20 0 -11 -4 -20 -10 -20 -5 0 -10 -4 -10 -9 0 -5 -25 -53 -55 -106 -30 -54
-55 -99 -55 -101 0 -1 -15 -29 -34 -61 -50 -86 -141 -251 -164 -298 -9 -16
-18 -32 -21 -35 -3 -3 -13 -18 -21 -35 -8 -16 -36 -66 -61 -110 -25 -44 -60
-107 -78 -140 -38 -70 -218 -393 -231 -415 -5 -8 -40 -71 -78 -140 -38 -69
-81 -146 -95 -172 -17 -31 -22 -48 -14 -49 6 0 616 0 1355 0 l1342 0 0 -365 0
-365 133 3 132 3 0 355 c0 219 3 358 9 362 6 4 129 7 275 7 147 0 300 0 341 0
l75 1 0 130 0 130 -45 1 c-25 0 -181 1 -347 1 -212 1 -303 4 -305 12 -2 6 -4
1148 -3 2539 0 1390 0 2527 0 2527 -1 0 -6 -5 -13 -12z m-256 -5054 c-3 -8
-320 -11 -1155 -11 -633 0 -1151 2 -1151 4 0 5 54 107 100 188 103 183 150
268 155 285 3 11 11 20 16 20 5 0 9 4 9 9 0 5 37 76 83 158 46 81 86 155 90
163 4 8 20 38 37 65 16 28 42 75 57 105 16 30 30 57 33 60 5 4 123 215 216
385 12 22 38 69 59 105 20 36 41 74 46 85 9 21 20 39 52 87 10 16 15 28 11 28
-4 0 0 8 8 18 9 9 30 44 47 77 65 124 86 160 98 173 7 7 13 17 13 21 0 5 24
51 53 102 29 52 70 126 92 164 21 39 103 187 183 330 80 143 158 285 175 315
16 30 51 94 78 141 27 48 49 91 49 97 0 6 4 12 8 14 5 2 30 44 57 93 26 50 54
98 63 108 8 9 12 17 9 17 -4 0 8 24 25 53 44 74 67 114 100 177 16 30 38 71
50 90 11 19 36 64 56 100 19 36 43 79 52 95 19 33 72 129 104 189 l21 38 3
-2068 c1 -1138 0 -2074 -2 -2080z"/>
<path d="M21345 24201 c-2 -2 -24 -4 -50 -5 -37 -1 -52 -8 -78 -34 -28 -29
-32 -38 -32 -90 0 -47 5 -64 25 -89 14 -18 34 -35 45 -39 11 -5 445 -8 965 -8
l945 -1 1 -2617 c1 -1440 5 -2638 8 -2663 9 -54 47 -86 111 -93 49 -4 102 24
126 67 13 23 14 383 14 2664 0 1450 2 2638 5 2638 3 1 426 3 940 4 647 1 943
5 961 13 33 13 64 56 72 100 12 62 -38 140 -95 147 -77 10 -128 11 -128 3 0
-5 -4 -7 -9 -4 -5 3 -37 6 -72 6 -35 0 -73 0 -84 0 -222 4 -315 4 -315 -3 0
-5 -4 -6 -9 -3 -5 3 -37 6 -72 6 -35 0 -73 0 -84 0 -179 4 -255 4 -255 -2 0
-4 -6 -5 -14 -2 -22 8 -306 10 -306 2 0 -4 -6 -5 -14 -2 -22 8 -306 10 -306 2
0 -4 -6 -5 -14 -2 -22 8 -306 10 -306 2 0 -4 -6 -5 -14 -2 -23 9 -526 10 -526
1 0 -5 -4 -6 -9 -3 -5 3 -37 6 -72 6 -35 0 -73 0 -84 0 -222 4 -315 4 -315 -3
0 -5 -4 -6 -9 -3 -5 3 -37 6 -72 6 -35 0 -73 0 -84 0 -222 4 -315 4 -315 -3 0
-5 -4 -6 -9 -3 -5 3 -37 6 -72 6 -35 0 -73 0 -84 0 -169 4 -307 4 -310 1z"/>
</g>
</svg>
