<svg width="17" height="15" viewBox="0 0 17 15" fill="none" xmlns="http://www.w3.org/2000/svg">
<path fill-rule="evenodd" clip-rule="evenodd" d="M8.5 1.97152C9.35188 0.76682 10.8561 0 12.5139 0C15.1265 0 17 2.1707 17 4.70272C17 6.99638 15.5984 9.39236 12.874 11.8365C12.0075 12.6139 11.0757 13.3307 10.1397 13.9716C9.57421 14.3587 9.12186 14.6413 8.86375 14.7905L8.73782 14.8631L8.5 15L8.26218 14.8631L8.13319 14.7888C8.06276 14.7478 7.94584 14.6776 7.78186 14.5753C7.51247 14.4073 7.2137 14.2128 6.89274 13.9937C5.979 13.3699 5.06592 12.6716 4.21194 11.9132L4.12598 11.8365C1.40163 9.39236 0 6.99638 0 4.70272C0 2.1707 1.87349 0 4.48611 0C6.14387 0 7.64812 0.76682 8.5 1.97152ZM16.0556 4.70272C16.0556 2.65586 14.5685 0.932908 12.5139 0.932908C10.891 0.932908 9.46786 1.82587 8.93754 3.11615L8.5 4.18069L8.06246 3.11615C7.53214 1.82587 6.109 0.932908 4.48611 0.932908C2.43149 0.932908 0.944444 2.65586 0.944444 4.70272C0.944444 6.68976 2.21516 8.86197 4.76096 11.1459L4.84335 11.2195C5.66491 11.949 6.54692 12.6236 7.42968 13.2262C7.73955 13.4377 8.02748 13.6252 8.28618 13.7866C8.3712 13.8396 8.44285 13.8835 8.50004 13.9181C8.45251 13.9468 8.41473 13.9691 8.38733 13.985L8.26218 14.0571L8.5 14.4601L8.73782 14.0571L8.61188 13.9846C8.58496 13.969 8.54747 13.9467 8.50004 13.9181C8.55951 13.8822 8.63426 13.8363 8.7231 13.7808C8.98875 13.6149 9.28422 13.4222 9.6017 13.2048C10.5058 12.5858 11.4058 11.8935 12.239 11.1459C14.7848 8.86197 16.0556 6.68976 16.0556 4.70272Z" fill="white"/>
</svg>
