<svg width="137" height="22" viewBox="0 0 137 22" fill="none" xmlns="http://www.w3.org/2000/svg">
<path fill-rule="evenodd" clip-rule="evenodd" d="M9.47161 21V18.725H1L10.2987 2V17.9H12.4793V18.725H10.2987V21H9.47161ZM9.47161 17.9V4.875L2.22813 17.9H9.47161ZM29.0465 15.425C29.0465 16.1917 28.9003 16.9125 28.6079 17.5875C28.3155 18.2625 27.9187 18.85 27.4174 19.35C26.9161 19.85 26.3271 20.2458 25.6504 20.5375C24.9736 20.8292 24.251 20.975 23.4823 20.975H17.9181C17.7845 20.975 17.6884 20.925 17.6299 20.825C17.5714 20.725 17.5422 20.6167 17.5422 20.5V1.75H15.888V20.625C15.888 20.7417 15.842 20.8333 15.7501 20.9C15.6582 20.9667 15.5621 21 15.4619 21C15.3616 21 15.2697 20.9625 15.1862 20.8875C15.1026 20.8125 15.0609 20.725 15.0609 20.625V1.375C15.0609 1.125 15.1945 1 15.4619 1H23.0061C23.6745 1 24.3053 1.125 24.8985 1.375C25.4916 1.625 26.0054 1.97083 26.4399 2.4125C26.8743 2.85417 27.221 3.36666 27.48 3.95C27.739 4.53334 27.8685 5.15833 27.8685 5.825C27.8685 6.74167 27.6304 7.5875 27.1542 8.3625C26.678 9.1375 26.0138 9.725 25.1616 10.125C25.7297 10.3083 26.2561 10.575 26.7407 10.925C27.2252 11.275 27.6346 11.6833 27.9688 12.15C28.303 12.6167 28.5661 13.1292 28.7583 13.6875C28.9505 14.2458 29.0465 14.825 29.0465 15.425ZM27.0915 5.825C27.0915 5.25833 26.9829 4.72917 26.7657 4.2375C26.5485 3.74583 26.2561 3.31667 25.8885 2.95C25.5209 2.58333 25.0906 2.29167 24.5977 2.075C24.1048 1.85833 23.5742 1.75 23.0061 1.75H18.269V9.875H23.0061C23.5575 9.875 24.0839 9.76667 24.5852 9.55C25.0864 9.33333 25.5209 9.04167 25.8885 8.675C26.2561 8.30833 26.5485 7.87917 26.7657 7.3875C26.9829 6.89583 27.0915 6.375 27.0915 5.825ZM28.2696 15.425C28.2696 14.775 28.1442 14.1583 27.8936 13.575C27.643 12.9917 27.3004 12.4833 26.866 12.05C26.4315 11.6167 25.9219 11.275 25.3371 11.025C24.7522 10.775 24.134 10.65 23.4823 10.65C23.4155 10.65 23.3737 10.6417 23.357 10.625H18.269V20.225H23.4823C24.1507 20.225 24.7731 20.1 25.3496 19.85C25.9261 19.6 26.4315 19.2583 26.866 18.825C27.3004 18.3917 27.643 17.8833 27.8936 17.3C28.1442 16.7167 28.2696 16.0917 28.2696 15.425ZM50.9994 11C50.9994 12.3833 50.7362 13.6833 50.2099 14.9C49.6835 16.1167 48.9692 17.175 48.0669 18.075C47.1646 18.975 46.1036 19.6875 44.8838 20.2125C43.664 20.7375 42.3607 21 40.9738 21C39.587 21 38.2836 20.7375 37.0639 20.2125C35.8441 19.6875 34.783 18.975 33.8807 18.075C32.9784 17.175 32.2641 16.1167 31.7378 14.9C31.2114 13.6833 30.9483 12.3833 30.9483 11C30.9483 9.61666 31.2114 8.31667 31.7378 7.1C32.2641 5.88333 32.9784 4.825 33.8807 3.925C34.783 3.025 35.8441 2.3125 37.0639 1.7875C38.2836 1.2625 39.587 1 40.9738 1C42.3607 1 43.664 1.2625 44.8838 1.7875C46.1036 2.3125 47.1646 3.025 48.0669 3.925C48.9692 4.825 49.6835 5.88333 50.2099 7.1C50.7362 8.31667 50.9994 9.61666 50.9994 11ZM49.4956 7.425C49.011 6.30833 48.3468 5.32917 47.503 4.4875C46.6592 3.64583 45.6775 2.98334 44.558 2.5C43.4384 2.01666 42.2437 1.775 40.9738 1.775C39.7039 1.775 38.5092 2.01666 37.3897 2.5C36.2702 2.98334 35.2885 3.64583 34.4447 4.4875C33.6009 5.32917 32.9367 6.30833 32.4521 7.425C31.9675 8.54167 31.7252 9.73333 31.7252 11C31.7252 12.2667 31.9675 13.4583 32.4521 14.575C32.9367 15.6917 33.6009 16.6708 34.4447 17.5125C35.2885 18.3542 36.2702 19.0167 37.3897 19.5C38.5092 19.9833 39.7039 20.225 40.9738 20.225C42.2437 20.225 43.4384 19.9833 44.558 19.5C45.6775 19.0167 46.6592 18.3542 47.503 17.5125C48.3468 16.6708 49.011 15.6917 49.4956 14.575C49.9801 13.4583 50.2224 12.2667 50.2224 11C50.2224 9.73333 49.9801 8.54167 49.4956 7.425ZM65.3328 16.05C65.3328 16.7167 65.2075 17.35 64.9569 17.95C64.7062 18.55 64.3595 19.075 63.9167 19.525C63.4739 19.975 62.9559 20.3333 62.3628 20.6C61.7696 20.8667 61.1388 21 60.4704 21H58.5405C57.8554 21 57.2121 20.8708 56.6106 20.6125C56.0091 20.3542 55.4827 20 55.0316 19.55C54.5804 19.1 54.2253 18.575 53.9663 17.975C53.7074 17.375 53.5779 16.7333 53.5779 16.05V1.375C53.5779 1.275 53.6154 1.1875 53.6906 1.1125C53.7658 1.0375 53.8536 1 53.9538 1C54.0541 1 54.1418 1.0375 54.217 1.1125C54.2922 1.1875 54.3298 1.275 54.3298 1.375V16.05C54.3298 16.6167 54.4426 17.1542 54.6681 17.6625C54.8937 18.1708 55.1987 18.6167 55.583 19C55.9673 19.3833 56.4143 19.6875 56.9239 19.9125C57.4335 20.1375 57.9724 20.25 58.5405 20.25H60.4704C61.0386 20.25 61.5732 20.1375 62.0745 19.9125C62.5758 19.6875 63.0102 19.3833 63.3778 19C63.7455 18.6167 64.0379 18.1708 64.2551 17.6625C64.4723 17.1542 64.5809 16.6167 64.5809 16.05V1.375C64.5809 1.275 64.6185 1.1875 64.6937 1.1125C64.7689 1.0375 64.8566 1 64.9569 1C65.0571 1 65.1449 1.0375 65.22 1.1125C65.2952 1.1875 65.3328 1.275 65.3328 1.375V16.05ZM80.2678 1.375C80.2678 1.475 80.2302 1.5625 80.155 1.6375C80.0798 1.7125 79.9921 1.75 79.8918 1.75H67.5604C67.4601 1.75 67.3724 1.7125 67.2972 1.6375C67.222 1.5625 67.1844 1.475 67.1844 1.375C67.1844 1.275 67.222 1.1875 67.2972 1.1125C67.3724 1.0375 67.4601 1 67.5604 1H79.8918C79.9921 1 80.0798 1.0375 80.155 1.1125C80.2302 1.1875 80.2678 1.275 80.2678 1.375ZM80.3931 3.8C80.3931 3.9 80.3555 3.99167 80.2803 4.075C80.2051 4.15833 80.1174 4.2 80.0172 4.2H74.2023V20.625C74.2023 20.725 74.1606 20.8125 74.077 20.8875C73.9935 20.9625 73.9016 21 73.8013 21C73.701 21 73.6092 20.9667 73.5256 20.9C73.4421 20.8333 73.4003 20.7417 73.4003 20.625V4.2H67.5604C67.4601 4.2 67.3724 4.15833 67.2972 4.075C67.222 3.99167 67.1844 3.9 67.1844 3.8C67.1844 3.7 67.2178 3.60417 67.2847 3.5125C67.3515 3.42083 67.4434 3.375 67.5604 3.375H80.0172C80.1341 3.375 80.226 3.42083 80.2929 3.5125C80.3597 3.60417 80.3931 3.7 80.3931 3.8ZM83.0217 20.625C83.0217 20.7417 82.9799 20.8333 82.8964 20.9C82.8128 20.9667 82.7209 21 82.6207 21C82.5204 21 82.4327 20.9625 82.3575 20.8875C82.2823 20.8125 82.2447 20.725 82.2447 20.625V1.375C82.2447 1.275 82.2823 1.1875 82.3575 1.1125C82.4327 1.0375 82.5204 1 82.6207 1C82.7209 1 82.8128 1.03333 82.8964 1.1C82.9799 1.16667 83.0217 1.25833 83.0217 1.375V20.625ZM105.551 10.9C105.551 13.5333 104.632 15.8167 102.794 17.75C102.861 17.85 103.003 18.0458 103.22 18.3375C103.437 18.6292 103.659 18.9292 103.884 19.2375C104.11 19.5458 104.31 19.8375 104.486 20.1125C104.661 20.3875 104.749 20.5583 104.749 20.625C104.749 20.725 104.711 20.8125 104.636 20.8875C104.561 20.9625 104.473 21 104.373 21C104.223 21 104.114 20.95 104.047 20.85C103.964 20.7333 103.776 20.475 103.483 20.075C103.191 19.675 102.852 19.2083 102.468 18.675C102.084 18.1417 101.674 17.5792 101.24 16.9875C100.806 16.3958 100.409 15.8417 100.05 15.325C99.6903 14.8083 99.3937 14.3708 99.1597 14.0125C98.9258 13.6542 98.8088 13.45 98.8088 13.4C98.8088 13.3 98.8464 13.2125 98.9216 13.1375C98.9968 13.0625 99.0845 13.025 99.1848 13.025C99.3352 13.025 99.4438 13.0833 99.5106 13.2L102.318 17.1C103.12 16.25 103.726 15.2958 104.135 14.2375C104.544 13.1792 104.749 12.0667 104.749 10.9C104.749 9.64999 104.507 8.47084 104.022 7.3625C103.538 6.25416 102.882 5.2875 102.055 4.4625C101.228 3.6375 100.258 2.98334 99.1472 2.5C98.036 2.01666 96.8539 1.775 95.6007 1.775C94.3475 1.775 93.1653 2.01666 92.0541 2.5C90.9429 2.98334 89.9738 3.6375 89.1467 4.4625C88.3196 5.2875 87.6638 6.25416 87.1792 7.3625C86.6946 8.47084 86.4523 9.64999 86.4523 10.9C86.4523 12.15 86.6946 13.3292 87.1792 14.4375C87.6638 15.5458 88.3196 16.5125 89.1467 17.3375C89.9738 18.1625 90.9429 18.8167 92.0541 19.3C93.1653 19.7833 94.3475 20.025 95.6007 20.025C96.3192 20.025 97.021 19.9375 97.706 19.7625C98.3911 19.5875 99.0595 19.3583 99.7111 19.075C99.6443 18.975 99.4981 18.775 99.2725 18.475C99.047 18.175 98.788 17.8208 98.4955 17.4125C98.2031 17.0042 97.8982 16.5792 97.5807 16.1375C97.2632 15.6958 96.9666 15.2792 96.6909 14.8875C96.4152 14.4958 96.1897 14.1667 96.0142 13.9C95.8388 13.6333 95.751 13.475 95.751 13.425C95.751 13.325 95.7886 13.2333 95.8638 13.15C95.939 13.0667 96.0351 13.025 96.1521 13.025C96.3025 13.025 96.4111 13.0833 96.4779 13.2C96.528 13.2833 96.6909 13.5167 96.9666 13.9C97.2423 14.2833 97.5724 14.7458 97.9567 15.2875C98.341 15.8292 98.7504 16.4042 99.1848 17.0125C99.6192 17.6208 100.02 18.1833 100.388 18.7C100.755 19.2167 101.06 19.6583 101.303 20.025C101.545 20.3917 101.666 20.5917 101.666 20.625C101.666 20.725 101.629 20.8125 101.553 20.8875C101.478 20.9625 101.39 21 101.29 21C101.19 21 101.085 20.9458 100.977 20.8375C100.868 20.7292 100.764 20.6042 100.664 20.4625C100.563 20.3208 100.467 20.1792 100.375 20.0375C100.283 19.8958 100.212 19.7833 100.162 19.7C99.4605 20.0667 98.7253 20.3458 97.9567 20.5375C97.188 20.7292 96.4027 20.825 95.6007 20.825C94.2138 20.825 92.9188 20.5667 91.7158 20.05C90.5127 19.5333 89.4642 18.825 88.5702 17.925C87.6763 17.025 86.9703 15.975 86.4523 14.775C85.9343 13.575 85.6753 12.2833 85.6753 10.9C85.6753 9.53333 85.9343 8.25001 86.4523 7.05C86.9703 5.84999 87.6805 4.8 88.5828 3.9C89.4851 3 90.5377 2.29167 91.7408 1.775C92.9439 1.25833 94.2305 1 95.6007 1C96.9708 1 98.2616 1.25833 99.473 1.775C100.684 2.29167 101.741 2.99583 102.644 3.8875C103.546 4.77917 104.256 5.82916 104.774 7.0375C105.292 8.24584 105.551 9.53333 105.551 10.9ZM119.985 16.05C119.985 16.7167 119.859 17.35 119.609 17.95C119.358 18.55 119.011 19.075 118.569 19.525C118.126 19.975 117.608 20.3333 117.015 20.6C116.421 20.8667 115.791 21 115.122 21H113.192C112.507 21 111.864 20.8708 111.262 20.6125C110.661 20.3542 110.135 20 109.683 19.55C109.232 19.1 108.877 18.575 108.618 17.975C108.359 17.375 108.23 16.7333 108.23 16.05V1.375C108.23 1.275 108.267 1.1875 108.343 1.1125C108.418 1.0375 108.505 1 108.606 1C108.706 1 108.794 1.0375 108.869 1.1125C108.944 1.1875 108.982 1.275 108.982 1.375V16.05C108.982 16.6167 109.094 17.1542 109.32 17.6625C109.546 18.1708 109.851 18.6167 110.235 19C110.619 19.3833 111.066 19.6875 111.576 19.9125C112.085 20.1375 112.624 20.25 113.192 20.25H115.122C115.69 20.25 116.225 20.1375 116.726 19.9125C117.228 19.6875 117.662 19.3833 118.03 19C118.397 18.6167 118.69 18.1708 118.907 17.6625C119.124 17.1542 119.233 16.6167 119.233 16.05V1.375C119.233 1.275 119.27 1.1875 119.346 1.1125C119.421 1.0375 119.509 1 119.609 1C119.709 1 119.797 1.0375 119.872 1.1125C119.947 1.1875 119.985 1.275 119.985 1.375V16.05ZM136.574 20.575C136.574 20.675 136.54 20.7708 136.474 20.8625C136.407 20.9542 136.315 21 136.198 21H123.917C123.8 21 123.704 20.9583 123.628 20.875C123.553 20.7917 123.516 20.6917 123.516 20.575V1.375C123.516 1.25833 123.557 1.16667 123.641 1.1C123.724 1.03333 123.816 1 123.917 1H136.198C136.298 1 136.386 1.0375 136.461 1.1125C136.536 1.1875 136.574 1.275 136.574 1.375C136.574 1.475 136.536 1.5625 136.461 1.6375C136.386 1.7125 136.298 1.75 136.198 1.75H124.268V9.525H133.566C133.667 9.525 133.754 9.5625 133.829 9.6375C133.905 9.7125 133.942 9.8 133.942 9.9C133.942 10 133.905 10.0875 133.829 10.1625C133.754 10.2375 133.667 10.275 133.566 10.275H124.318L124.293 11.975H133.667C133.934 11.975 134.068 12.1083 134.068 12.375C134.068 12.475 134.026 12.5667 133.942 12.65C133.859 12.7333 133.767 12.775 133.667 12.775H124.268V20.15H136.198C136.298 20.15 136.386 20.1958 136.461 20.2875C136.536 20.3792 136.574 20.475 136.574 20.575Z" fill="#C8A985"/>
<path d="M9.47161 21H9.22161V21.25H9.47161V21ZM9.47161 18.725H9.72161V18.475H9.47161V18.725ZM1 18.725L0.7815 18.6035L0.574965 18.975H1V18.725ZM10.2987 2H10.5487V1.03586L10.0802 1.87852L10.2987 2ZM10.2987 17.9H10.0487V18.15H10.2987V17.9ZM12.4793 17.9H12.7293V17.65H12.4793V17.9ZM12.4793 18.725V18.975H12.7293V18.725H12.4793ZM10.2987 18.725V18.475H10.0487V18.725H10.2987ZM10.2987 21V21.25H10.5487V21H10.2987ZM9.47161 17.9V18.15H9.72161V17.9H9.47161ZM9.47161 4.875H9.72161V3.91108L9.25312 4.75349L9.47161 4.875ZM2.22813 17.9L2.00965 17.7785L1.80304 18.15H2.22813V17.9ZM17.5422 1.75H17.7922V1.5H17.5422V1.75ZM15.888 1.75V1.5H15.638V1.75H15.888ZM25.1616 10.125L25.0554 9.89869L24.4813 10.1682L25.0848 10.3629L25.1616 10.125ZM18.269 1.75V1.5H18.019V1.75H18.269ZM18.269 9.875H18.019V10.125H18.269V9.875ZM23.357 10.625L23.5336 10.448L23.4604 10.375H23.357V10.625ZM18.269 10.625V10.375H18.019V10.625H18.269ZM18.269 20.225H18.019V20.475H18.269V20.225ZM40.9738 1.775V1.525V1.775ZM80.0172 4.2V3.95V4.2ZM74.2023 4.2V3.95H73.9523V4.2H74.2023ZM73.4003 4.2H73.6503V3.95H73.4003V4.2ZM67.5604 4.2V3.95V4.2ZM102.794 17.75L102.613 17.5777L102.475 17.7227L102.586 17.8889L102.794 17.75ZM104.047 20.85L104.255 20.711L104.25 20.7044L104.047 20.85ZM99.5106 13.2L99.2937 13.3243L99.3002 13.3355L99.3077 13.346L99.5106 13.2ZM102.318 17.1L102.115 17.246L102.292 17.4918L102.5 17.2716L102.318 17.1ZM95.6007 1.775V1.525V1.775ZM99.7111 19.075L99.8108 19.3043L100.085 19.1849L99.919 18.9361L99.7111 19.075ZM96.4779 13.2L96.2609 13.3243L96.2637 13.3289L96.4779 13.2ZM100.162 19.7L100.377 19.5711L100.255 19.3694L100.047 19.4784L100.162 19.7ZM124.268 1.75V1.5H124.018V1.75H124.268ZM124.268 9.525H124.018V9.775H124.268V9.525ZM124.318 10.275V10.025H124.071L124.068 10.2713L124.318 10.275ZM124.293 11.975L124.043 11.9713L124.039 12.225H124.293V11.975ZM124.268 12.775V12.525H124.018V12.775H124.268ZM124.268 20.15H124.018V20.4H124.268V20.15ZM9.72161 21V18.725H9.22161V21H9.72161ZM9.47161 18.475H1V18.975H9.47161V18.475ZM1.2185 18.8465L10.5172 2.12148L10.0802 1.87852L0.7815 18.6035L1.2185 18.8465ZM10.0487 2V17.9H10.5487V2H10.0487ZM10.2987 18.15H12.4793V17.65H10.2987V18.15ZM12.2293 17.9V18.725H12.7293V17.9H12.2293ZM12.4793 18.475H10.2987V18.975H12.4793V18.475ZM10.0487 18.725V21H10.5487V18.725H10.0487ZM10.2987 20.75H9.47161V21.25H10.2987V20.75ZM9.72161 17.9V4.875H9.22161V17.9H9.72161ZM9.25312 4.75349L2.00965 17.7785L2.44662 18.0215L9.69009 4.99651L9.25312 4.75349ZM2.22813 18.15H9.47161V17.65H2.22813V18.15ZM28.7965 15.425C28.7965 16.159 28.6568 16.8458 28.3785 17.4881L28.8373 17.6869C29.1439 16.9792 29.2965 16.2244 29.2965 15.425H28.7965ZM28.3785 17.4881C28.0982 18.1353 27.7189 18.6962 27.2408 19.173L27.5939 19.527C28.1184 19.0038 28.5328 18.3897 28.8373 17.6869L28.3785 17.4881ZM27.2408 19.173C26.7628 19.6498 26.2004 20.0282 25.5514 20.3079L25.7493 20.7671C26.4538 20.4635 27.0694 20.0502 27.5939 19.527L27.2408 19.173ZM25.5514 20.3079C24.9073 20.5855 24.2184 20.725 23.4823 20.725V21.225C24.2835 21.225 25.04 21.0728 25.7493 20.7671L25.5514 20.3079ZM23.4823 20.725H17.9181V21.225H23.4823V20.725ZM17.9181 20.725C17.8822 20.725 17.8662 20.7183 17.8612 20.7157C17.8579 20.714 17.8529 20.7111 17.8457 20.6988L17.4141 20.9512C17.5251 21.141 17.712 21.225 17.9181 21.225V20.725ZM17.8457 20.6988C17.8098 20.6374 17.7922 20.5726 17.7922 20.5H17.2922C17.2922 20.6607 17.3331 20.8126 17.4141 20.9512L17.8457 20.6988ZM17.7922 20.5V1.75H17.2922V20.5H17.7922ZM17.5422 1.5H15.888V2H17.5422V1.5ZM15.638 1.75V20.625H16.138V1.75H15.638ZM15.638 20.625C15.638 20.6642 15.6283 20.6795 15.6033 20.6976L15.8969 21.1024C16.0557 20.9872 16.138 20.8191 16.138 20.625H15.638ZM15.6033 20.6976C15.5482 20.7376 15.5026 20.75 15.4619 20.75V21.25C15.6217 21.25 15.7682 21.1957 15.8969 21.1024L15.6033 20.6976ZM15.4619 20.75C15.4308 20.75 15.3968 20.7406 15.3532 20.7015L15.0192 21.0735C15.1427 21.1844 15.2925 21.25 15.4619 21.25V20.75ZM15.3532 20.7015C15.3153 20.6674 15.3109 20.6449 15.3109 20.625H14.8109C14.8109 20.8051 14.89 20.9576 15.0192 21.0735L15.3532 20.7015ZM15.3109 20.625V1.375H14.8109V20.625H15.3109ZM15.3109 1.375C15.3109 1.33409 15.3164 1.30891 15.3214 1.29488C15.3259 1.28222 15.3301 1.27801 15.3319 1.27635C15.3349 1.27351 15.3627 1.25 15.4619 1.25V0.75C15.2937 0.75 15.121 0.788986 14.9904 0.911148C14.8566 1.03626 14.8109 1.20701 14.8109 1.375H15.3109ZM15.4619 1.25H23.0061V0.75H15.4619V1.25ZM23.0061 1.25C23.6425 1.25 24.2401 1.36882 24.8014 1.60538L24.9955 1.14462C24.3705 0.881174 23.7065 0.75 23.0061 0.75V1.25ZM24.8014 1.60538C25.3653 1.84307 25.8513 2.17059 26.2617 2.58781L26.6181 2.23719C26.1596 1.77107 25.6179 1.40693 24.9955 1.14462L24.8014 1.60538ZM26.2617 2.58781C26.6744 3.00743 27.0044 3.49471 27.2515 4.05145L27.7085 3.84855C27.4377 3.23862 27.0742 2.70091 26.6181 2.23719L26.2617 2.58781ZM27.2515 4.05145C27.4957 4.60142 27.6185 5.19169 27.6185 5.825H28.1185C28.1185 5.12497 27.9823 4.46525 27.7085 3.84855L27.2515 4.05145ZM27.6185 5.825C27.6185 6.69584 27.393 7.4963 26.9412 8.23162L27.3672 8.49338C27.8678 7.67869 28.1185 6.7875 28.1185 5.825H27.6185ZM26.9412 8.23162C26.4914 8.96357 25.8651 9.51864 25.0554 9.89869L25.2679 10.3513C26.1625 9.93136 26.8645 9.31143 27.3672 8.49338L26.9412 8.23162ZM25.0848 10.3629C25.628 10.5382 26.1309 10.793 26.5943 11.1277L26.887 10.7223C26.3813 10.357 25.8315 10.0785 25.2384 9.88708L25.0848 10.3629ZM26.5943 11.1277C27.0578 11.4625 27.4477 11.8518 27.7655 12.2956L28.172 12.0044C27.8215 11.5149 27.3926 11.0875 26.887 10.7223L26.5943 11.1277ZM27.7655 12.2956C28.0852 12.742 28.3374 13.2327 28.5219 13.7689L28.9947 13.6061C28.7949 13.0256 28.5207 12.4914 28.172 12.0044L27.7655 12.2956ZM28.5219 13.7689C28.7049 14.3006 28.7965 14.8522 28.7965 15.425H29.2965C29.2965 14.7978 29.196 14.1911 28.9947 13.6061L28.5219 13.7689ZM27.3415 5.825C27.3415 5.22546 27.2264 4.66168 26.9944 4.13647L26.537 4.33853C26.7394 4.79666 26.8415 5.2912 26.8415 5.825H27.3415ZM26.9944 4.13647C26.7651 3.61748 26.4553 3.16231 26.065 2.773L25.7119 3.127C26.0568 3.47102 26.3319 3.87418 26.537 4.33853L26.9944 4.13647ZM26.065 2.773C25.6747 2.38369 25.2185 2.07478 24.6983 1.84613L24.4971 2.30387C24.9628 2.50856 25.367 2.78298 25.7119 3.127L26.065 2.773ZM24.6983 1.84613C24.1719 1.61477 23.6069 1.5 23.0061 1.5V2C23.5416 2 24.0376 2.1019 24.4971 2.30387L24.6983 1.84613ZM23.0061 1.5H18.269V2H23.0061V1.5ZM18.019 1.75V9.875H18.519V1.75H18.019ZM18.269 10.125H23.0061V9.625H18.269V10.125ZM23.0061 10.125C23.5913 10.125 24.1514 10.0098 24.6843 9.77948L24.486 9.32052C24.0163 9.52352 23.5238 9.625 23.0061 9.625V10.125ZM24.6843 9.77948C25.213 9.551 25.674 9.24201 26.065 8.852L25.7119 8.498C25.3677 8.84133 24.9599 9.11567 24.486 9.32052L24.6843 9.77948ZM26.065 8.852C26.4553 8.46269 26.7651 8.00752 26.9944 7.48853L26.537 7.28647C26.3319 7.75082 26.0568 8.15398 25.7119 8.498L26.065 8.852ZM26.9944 7.48853C27.226 6.96428 27.3415 6.40897 27.3415 5.825H26.8415C26.8415 6.34104 26.7399 6.82738 26.537 7.28647L26.9944 7.48853ZM28.5196 15.425C28.5196 14.7419 28.3876 14.0916 28.1233 13.4763L27.6639 13.6737C27.9008 14.2251 28.0196 14.8081 28.0196 15.425H28.5196ZM28.1233 13.4763C27.8605 12.8648 27.5003 12.3296 27.0425 11.873L26.6894 12.227C27.1005 12.6371 27.4254 13.1186 27.6639 13.6737L28.1233 13.4763ZM27.0425 11.873C26.5848 11.4164 26.0483 11.0571 25.4353 10.7951L25.2388 11.2549C25.7955 11.4929 26.2783 11.8169 26.6894 12.227L27.0425 11.873ZM25.4353 10.7951C24.8187 10.5315 24.1669 10.4 23.4823 10.4V10.9C24.1011 10.9 24.6858 11.0185 25.2388 11.2549L25.4353 10.7951ZM23.4823 10.4C23.4572 10.4 23.4482 10.3983 23.4498 10.3986C23.451 10.3988 23.4596 10.4006 23.4725 10.4061C23.4849 10.4113 23.5089 10.4234 23.5336 10.448L23.1805 10.802C23.242 10.8634 23.3165 10.8818 23.352 10.8889C23.3954 10.8976 23.4406 10.9 23.4823 10.9V10.4ZM23.357 10.375H18.269V10.875H23.357V10.375ZM18.019 10.625V20.225H18.519V10.625H18.019ZM18.269 20.475H23.4823V19.975H18.269V20.475ZM23.4823 20.475C24.1827 20.475 24.8392 20.3438 25.4491 20.0794L25.2501 19.6206C24.707 19.8562 24.1187 19.975 23.4823 19.975V20.475ZM25.4491 20.0794C26.0536 19.8172 26.5854 19.458 27.0425 19.002L26.6894 18.648C26.2777 19.0587 25.7986 19.3828 25.2501 19.6206L25.4491 20.0794ZM27.0425 19.002C27.5003 18.5454 27.8605 18.0102 28.1233 17.3987L27.6639 17.2013C27.4254 17.7564 27.1005 18.2379 26.6894 18.648L27.0425 19.002ZM28.1233 17.3987C28.388 16.7826 28.5196 16.1239 28.5196 15.425H28.0196C28.0196 16.0595 27.9005 16.6507 27.6639 17.2013L28.1233 17.3987ZM50.7494 11C50.7494 12.3507 50.4926 13.6168 49.9804 14.8007L50.4393 14.9993C50.9798 13.7499 51.2494 12.416 51.2494 11H50.7494ZM49.9804 14.8007C49.4661 15.9896 48.7694 17.0212 47.8904 17.898L48.2435 18.252C49.1691 17.3288 49.9009 16.2438 50.4393 14.9993L49.9804 14.8007ZM47.8904 17.898C47.0113 18.7748 45.977 19.4698 44.785 19.9829L44.9826 20.4421C46.2302 19.9052 47.3179 19.1752 48.2435 18.252L47.8904 17.898ZM44.785 19.9829C43.5978 20.4938 42.3283 20.75 40.9738 20.75V21.25C42.3932 21.25 43.7303 20.9812 44.9826 20.4421L44.785 19.9829ZM40.9738 20.75C39.6194 20.75 38.3499 20.4938 37.1627 19.9829L36.965 20.4421C38.2174 20.9812 39.5545 21.25 40.9738 21.25V20.75ZM37.1627 19.9829C35.9707 19.4698 34.9363 18.7748 34.0573 17.898L33.7042 18.252C34.6298 19.1752 35.7175 19.9052 36.965 20.4421L37.1627 19.9829ZM34.0573 17.898C33.1783 17.0212 32.4815 15.9896 31.9672 14.8007L31.5083 14.9993C32.0467 16.2438 32.7786 17.3288 33.7042 18.252L34.0573 17.898ZM31.9672 14.8007C31.455 13.6168 31.1983 12.3507 31.1983 11H30.6983C30.6983 12.416 30.9678 13.7499 31.5083 14.9993L31.9672 14.8007ZM31.1983 11C31.1983 9.64929 31.455 8.38323 31.9672 7.19926L31.5083 7.00074C30.9678 8.25011 30.6983 9.58403 30.6983 11H31.1983ZM31.9672 7.19926C32.4815 6.01043 33.1783 4.97878 34.0573 4.102L33.7042 3.748C32.7786 4.67123 32.0467 5.75623 31.5083 7.00074L31.9672 7.19926ZM34.0573 4.102C34.9363 3.22522 35.9707 2.53019 37.1627 2.01713L36.965 1.55787C35.7175 2.09482 34.6298 2.82477 33.7042 3.748L34.0573 4.102ZM37.1627 2.01713C38.3499 1.50616 39.6194 1.25 40.9738 1.25V0.75C39.5545 0.75 38.2174 1.01883 36.965 1.55787L37.1627 2.01713ZM40.9738 1.25C42.3283 1.25 43.5978 1.50616 44.785 2.01713L44.9826 1.55787C43.7303 1.01883 42.3932 0.75 40.9738 0.75V1.25ZM44.785 2.01713C45.977 2.53019 47.0113 3.22522 47.8904 4.102L48.2435 3.748C47.3179 2.82477 46.2302 2.09482 44.9826 1.55787L44.785 2.01713ZM47.8904 4.102C48.7694 4.97878 49.4661 6.01043 49.9804 7.19926L50.4393 7.00074C49.9009 5.75623 49.1691 4.67123 48.2435 3.748L47.8904 4.102ZM49.9804 7.19926C50.4926 8.38323 50.7494 9.64929 50.7494 11H51.2494C51.2494 9.58403 50.9798 8.25011 50.4393 7.00074L49.9804 7.19926ZM49.7249 7.32548C49.2281 6.18051 48.5462 5.17492 47.6795 4.3105L47.3264 4.6645C48.1474 5.48342 48.7939 6.43614 49.2662 7.52452L49.7249 7.32548ZM47.6795 4.3105C46.8129 3.44608 45.8048 2.76599 44.6571 2.27048L44.4589 2.72952C45.5502 3.20068 46.5054 3.84558 47.3264 4.6645L47.6795 4.3105ZM44.6571 2.27048C43.5049 1.77307 42.2764 1.525 40.9738 1.525V2.025C42.2111 2.025 43.3719 2.26026 44.4589 2.72952L44.6571 2.27048ZM40.9738 1.525C39.6713 1.525 38.4427 1.77307 37.2906 2.27048L37.4888 2.72952C38.5757 2.26026 39.7366 2.025 40.9738 2.025V1.525ZM37.2906 2.27048C36.1429 2.76599 35.1348 3.44608 34.2681 4.3105L34.6212 4.6645C35.4422 3.84558 36.3975 3.20068 37.4888 2.72952L37.2906 2.27048ZM34.2681 4.3105C33.4015 5.17492 32.7196 6.18051 32.2228 7.32548L32.6814 7.52452C33.1537 6.43614 33.8002 5.48342 34.6212 4.6645L34.2681 4.3105ZM32.2228 7.32548C31.724 8.47484 31.4752 9.70051 31.4752 11H31.9752C31.9752 9.76615 32.211 8.60851 32.6814 7.52452L32.2228 7.32548ZM31.4752 11C31.4752 12.2995 31.724 13.5252 32.2228 14.6745L32.6814 14.4755C32.211 13.3915 31.9752 12.2339 31.9752 11H31.4752ZM32.2228 14.6745C32.7196 15.8195 33.4015 16.8251 34.2681 17.6895L34.6212 17.3355C33.8002 16.5166 33.1537 15.5639 32.6814 14.4755L32.2228 14.6745ZM34.2681 17.6895C35.1348 18.5539 36.1429 19.234 37.2906 19.7295L37.4888 19.2705C36.3975 18.7993 35.4422 18.1544 34.6212 17.3355L34.2681 17.6895ZM37.2906 19.7295C38.4427 20.2269 39.6713 20.475 40.9738 20.475V19.975C39.7366 19.975 38.5757 19.7397 37.4888 19.2705L37.2906 19.7295ZM40.9738 20.475C42.2764 20.475 43.5049 20.2269 44.6571 19.7295L44.4589 19.2705C43.3719 19.7397 42.2111 19.975 40.9738 19.975V20.475ZM44.6571 19.7295C45.8048 19.234 46.8129 18.5539 47.6795 17.6895L47.3264 17.3355C46.5054 18.1544 45.5502 18.7993 44.4589 19.2705L44.6571 19.7295ZM47.6795 17.6895C48.5462 16.8251 49.2281 15.8195 49.7249 14.6745L49.2662 14.4755C48.7939 15.5639 48.1474 16.5166 47.3264 17.3355L47.6795 17.6895ZM49.7249 14.6745C50.2237 13.5252 50.4724 12.2995 50.4724 11H49.9724C49.9724 12.2339 49.7366 13.3915 49.2662 14.4755L49.7249 14.6745ZM50.4724 11C50.4724 9.70051 50.2237 8.47484 49.7249 7.32548L49.2662 7.52452C49.7366 8.60851 49.9724 9.76615 49.9724 11H50.4724ZM65.0828 16.05C65.0828 16.6844 64.9638 17.2849 64.7262 17.8536L65.1876 18.0464C65.4513 17.4151 65.5828 16.7489 65.5828 16.05H65.0828ZM64.7262 17.8536C64.4875 18.4251 64.1583 18.9231 63.7385 19.3497L64.0949 19.7003C64.5608 19.2269 64.925 18.6749 65.1876 18.0464L64.7262 17.8536ZM63.7385 19.3497C63.3181 19.7769 62.826 20.1176 62.2603 20.372L62.4653 20.828C63.0859 20.549 63.6297 20.1731 64.0949 19.7003L63.7385 19.3497ZM62.2603 20.372C61.7002 20.6238 61.1045 20.75 60.4704 20.75V21.25C61.1731 21.25 61.8389 21.1096 62.4653 20.828L62.2603 20.372ZM60.4704 20.75H58.5405V21.25H60.4704V20.75ZM58.5405 20.75C57.8877 20.75 57.2782 20.6271 56.7092 20.3828L56.5119 20.8422C57.1461 21.1146 57.8231 21.25 58.5405 21.25V20.75ZM56.7092 20.3828C56.136 20.1366 55.6362 19.8 55.2081 19.373L54.855 19.727C55.3292 20.2 55.8821 20.5717 56.5119 20.8422L56.7092 20.3828ZM55.2081 19.373C54.78 18.946 54.4426 18.4476 54.1959 17.8759L53.7368 18.0741C54.008 18.7024 54.3808 19.254 54.855 19.727L55.2081 19.373ZM54.1959 17.8759C53.951 17.3086 53.8279 16.7008 53.8279 16.05H53.3279C53.3279 16.7658 53.4637 17.4414 53.7368 18.0741L54.1959 17.8759ZM53.8279 16.05V1.375H53.3279V16.05H53.8279ZM53.8279 1.375C53.8279 1.34585 53.8358 1.32083 53.8672 1.2895L53.5141 0.935498C53.3951 1.05417 53.3279 1.20415 53.3279 1.375H53.8279ZM53.8672 1.2895C53.8986 1.25817 53.924 1.25 53.9538 1.25V0.75C53.7831 0.75 53.6331 0.816828 53.5141 0.935498L53.8672 1.2895ZM53.9538 1.25C53.9836 1.25 54.009 1.25817 54.0404 1.2895L54.3935 0.935498C54.2746 0.816828 54.1245 0.75 53.9538 0.75V1.25ZM54.0404 1.2895C54.0718 1.32083 54.0798 1.34585 54.0798 1.375H54.5798C54.5798 1.20415 54.5125 1.05417 54.3935 0.935498L54.0404 1.2895ZM54.0798 1.375V16.05H54.5798V1.375H54.0798ZM54.0798 16.05C54.0798 16.6509 54.1996 17.223 54.4396 17.7639L54.8966 17.5611C54.6855 17.0853 54.5798 16.5824 54.5798 16.05H54.0798ZM54.4396 17.7639C54.6774 18.2997 54.9997 18.7713 55.4064 19.177L55.7595 18.823C55.3976 18.462 55.11 18.042 54.8966 17.5611L54.4396 17.7639ZM55.4064 19.177C55.8131 19.5827 56.2859 19.9041 56.8229 20.1412L57.0249 19.6838C56.5426 19.4709 56.1215 19.184 55.7595 18.823L55.4064 19.177ZM56.8229 20.1412C57.365 20.3805 57.9383 20.5 58.5405 20.5V20C58.0065 20 57.502 19.8945 57.0249 19.6838L56.8229 20.1412ZM58.5405 20.5H60.4704V20H58.5405V20.5ZM60.4704 20.5C61.0726 20.5 61.6423 20.3805 62.1769 20.1406L61.9722 19.6844C61.5042 19.8945 61.0045 20 60.4704 20V20.5ZM62.1769 20.1406C62.7065 19.9029 63.1677 19.5804 63.5583 19.173L63.1974 18.827C62.8528 19.1863 62.4451 19.4721 61.9722 19.6844L62.1769 20.1406ZM63.5583 19.173C63.9476 18.7671 64.2564 18.2956 64.485 17.7607L64.0252 17.5643C63.8193 18.046 63.5433 18.4663 63.1974 18.827L63.5583 19.173ZM64.485 17.7607C64.7158 17.2206 64.8309 16.6496 64.8309 16.05H64.3309C64.3309 16.5838 64.2288 17.0878 64.0252 17.5643L64.485 17.7607ZM64.8309 16.05V1.375H64.3309V16.05H64.8309ZM64.8309 1.375C64.8309 1.34585 64.8389 1.32083 64.8703 1.2895L64.5172 0.935498C64.3982 1.05417 64.3309 1.20415 64.3309 1.375H64.8309ZM64.8703 1.2895C64.9017 1.25817 64.927 1.25 64.9569 1.25V0.75C64.7862 0.75 64.6361 0.816828 64.5172 0.935498L64.8703 1.2895ZM64.9569 1.25C64.9867 1.25 65.0121 1.25817 65.0435 1.2895L65.3966 0.935498C65.2776 0.816828 65.1276 0.75 64.9569 0.75V1.25ZM65.0435 1.2895C65.0749 1.32083 65.0828 1.34585 65.0828 1.375H65.5828C65.5828 1.20415 65.5156 1.05417 65.3966 0.935498L65.0435 1.2895ZM65.0828 1.375V16.05H65.5828V1.375H65.0828ZM80.0178 1.375C80.0178 1.40415 80.0099 1.42917 79.9785 1.4605L80.3316 1.8145C80.4505 1.69583 80.5178 1.54585 80.5178 1.375H80.0178ZM79.9785 1.4605C79.9471 1.49183 79.9217 1.5 79.8918 1.5V2C80.0625 2 80.2126 1.93317 80.3316 1.8145L79.9785 1.4605ZM79.8918 1.5H67.5604V2H79.8918V1.5ZM67.5604 1.5C67.5306 1.5 67.5052 1.49183 67.4738 1.4605L67.1207 1.8145C67.2396 1.93317 67.3897 2 67.5604 2V1.5ZM67.4738 1.4605C67.4424 1.42917 67.4344 1.40415 67.4344 1.375H66.9344C66.9344 1.54585 67.0017 1.69583 67.1207 1.8145L67.4738 1.4605ZM67.4344 1.375C67.4344 1.34585 67.4424 1.32083 67.4738 1.2895L67.1207 0.935498C67.0017 1.05417 66.9344 1.20415 66.9344 1.375H67.4344ZM67.4738 1.2895C67.5052 1.25817 67.5306 1.25 67.5604 1.25V0.75C67.3897 0.75 67.2396 0.816828 67.1207 0.935498L67.4738 1.2895ZM67.5604 1.25H79.8918V0.75H67.5604V1.25ZM79.8918 1.25C79.9217 1.25 79.9471 1.25817 79.9785 1.2895L80.3316 0.935498C80.2126 0.816828 80.0625 0.75 79.8918 0.75V1.25ZM79.9785 1.2895C80.0099 1.32083 80.0178 1.34585 80.0178 1.375H80.5178C80.5178 1.20415 80.4505 1.05417 80.3316 0.935498L79.9785 1.2895ZM80.1431 3.8C80.1431 3.83044 80.1339 3.86408 80.0947 3.90752L80.4659 4.24248C80.5771 4.11926 80.6431 3.96956 80.6431 3.8H80.1431ZM80.0947 3.90752C80.0606 3.9453 80.0378 3.95 80.0172 3.95V4.45C80.1971 4.45 80.3496 4.37137 80.4659 4.24248L80.0947 3.90752ZM80.0172 3.95H74.2023V4.45H80.0172V3.95ZM73.9523 4.2V20.625H74.4523V4.2H73.9523ZM73.9523 20.625C73.9523 20.6449 73.9479 20.6674 73.91 20.7015L74.244 21.0735C74.3732 20.9576 74.4523 20.8051 74.4523 20.625H73.9523ZM73.91 20.7015C73.8664 20.7406 73.8324 20.75 73.8013 20.75V21.25C73.9707 21.25 74.1205 21.1844 74.244 21.0735L73.91 20.7015ZM73.8013 20.75C73.7616 20.75 73.7239 20.7384 73.6815 20.7046L73.3697 21.0954C73.4944 21.1949 73.6405 21.25 73.8013 21.25V20.75ZM73.6815 20.7046C73.6634 20.6901 73.6503 20.6736 73.6503 20.625H73.1503C73.1503 20.8098 73.2207 20.9766 73.3697 21.0954L73.6815 20.7046ZM73.6503 20.625V4.2H73.1503V20.625H73.6503ZM73.4003 3.95H67.5604V4.45H73.4003V3.95ZM67.5604 3.95C67.5398 3.95 67.5169 3.9453 67.4828 3.90752L67.1116 4.24248C67.2279 4.37137 67.3805 4.45 67.5604 4.45V3.95ZM67.4828 3.90752C67.4436 3.86408 67.4344 3.83044 67.4344 3.8H66.9344C66.9344 3.96956 67.0004 4.11926 67.1116 4.24248L67.4828 3.90752ZM67.4344 3.8C67.4344 3.75991 67.4467 3.71468 67.4867 3.65979L67.0827 3.36521C66.989 3.49366 66.9344 3.64009 66.9344 3.8H67.4344ZM67.4867 3.65979C67.5048 3.63499 67.5204 3.625 67.5604 3.625V3.125C67.3665 3.125 67.1983 3.20667 67.0827 3.36521L67.4867 3.65979ZM67.5604 3.625H80.0172V3.125H67.5604V3.625ZM80.0172 3.625C80.0572 3.625 80.0728 3.63499 80.0909 3.65979L80.4949 3.36521C80.3793 3.20667 80.2111 3.125 80.0172 3.125V3.625ZM80.0909 3.65979C80.1309 3.71468 80.1431 3.75991 80.1431 3.8H80.6431C80.6431 3.64009 80.5885 3.49366 80.4949 3.36521L80.0909 3.65979ZM82.7717 20.625C82.7717 20.6736 82.7586 20.6901 82.7405 20.7046L83.0523 21.0954C83.2013 20.9766 83.2717 20.8098 83.2717 20.625H82.7717ZM82.7405 20.7046C82.6981 20.7384 82.6604 20.75 82.6207 20.75V21.25C82.7815 21.25 82.9276 21.1949 83.0523 21.0954L82.7405 20.7046ZM82.6207 20.75C82.5909 20.75 82.5655 20.7418 82.5341 20.7105L82.181 21.0645C82.2999 21.1832 82.45 21.25 82.6207 21.25V20.75ZM82.5341 20.7105C82.5027 20.6792 82.4947 20.6542 82.4947 20.625H81.9947C81.9947 20.7959 82.062 20.9458 82.181 21.0645L82.5341 20.7105ZM82.4947 20.625V1.375H81.9947V20.625H82.4947ZM82.4947 1.375C82.4947 1.34585 82.5027 1.32083 82.5341 1.2895L82.181 0.935498C82.062 1.05417 81.9947 1.20415 81.9947 1.375H82.4947ZM82.5341 1.2895C82.5655 1.25817 82.5909 1.25 82.6207 1.25V0.75C82.45 0.75 82.2999 0.816828 82.181 0.935498L82.5341 1.2895ZM82.6207 1.25C82.6604 1.25 82.6981 1.26158 82.7405 1.29541L83.0523 0.904588C82.9276 0.805088 82.7815 0.75 82.6207 0.75V1.25ZM82.7405 1.29541C82.7586 1.30989 82.7717 1.32643 82.7717 1.375H83.2717C83.2717 1.19024 83.2013 1.02345 83.0523 0.904588L82.7405 1.29541ZM82.7717 1.375V20.625H83.2717V1.375H82.7717ZM105.301 10.9C105.301 13.4683 104.407 15.6902 102.613 17.5777L102.975 17.9223C104.857 15.9431 105.801 13.5984 105.801 10.9H105.301ZM102.586 17.8889C102.657 17.9951 102.803 18.196 103.02 18.4868L103.421 18.1882C103.203 17.8956 103.065 17.7049 103.002 17.6111L102.586 17.8889ZM103.02 18.4868C103.236 18.7779 103.457 19.0773 103.683 19.3851L104.086 19.0899C103.86 18.781 103.638 18.4804 103.421 18.1882L103.02 18.4868ZM103.683 19.3851C103.905 19.6899 104.103 19.9771 104.275 20.247L104.697 19.978C104.518 19.6979 104.314 19.4018 104.086 19.0899L103.683 19.3851ZM104.275 20.247C104.361 20.3817 104.422 20.4857 104.461 20.5611C104.48 20.5989 104.492 20.6253 104.498 20.6421C104.506 20.6644 104.499 20.6537 104.499 20.625H104.999C104.999 20.5629 104.981 20.506 104.967 20.4688C104.951 20.4262 104.93 20.3803 104.906 20.3327C104.857 20.2372 104.786 20.1183 104.697 19.978L104.275 20.247ZM104.499 20.625C104.499 20.6542 104.491 20.6792 104.46 20.7105L104.813 21.0645C104.932 20.9458 104.999 20.7959 104.999 20.625H104.499ZM104.46 20.7105C104.428 20.7418 104.403 20.75 104.373 20.75V21.25C104.544 21.25 104.694 21.1832 104.813 21.0645L104.46 20.7105ZM104.373 20.75C104.282 20.75 104.264 20.7241 104.255 20.7111L103.839 20.9889C103.964 21.1759 104.163 21.25 104.373 21.25V20.75ZM104.25 20.7044C104.166 20.5866 103.977 20.3272 103.685 19.9275L103.281 20.2225C103.574 20.6228 103.761 20.8801 103.844 20.9956L104.25 20.7044ZM103.685 19.9275C103.393 19.528 103.055 19.0619 102.671 18.5288L102.265 18.8212C102.65 19.3548 102.989 19.822 103.281 20.2225L103.685 19.9275ZM102.671 18.5288C102.286 17.9948 101.876 17.4317 101.442 16.8395L101.039 17.1355C101.473 17.7266 101.882 18.2885 102.265 18.8212L102.671 18.5288ZM101.442 16.8395C101.008 16.2493 100.613 15.6969 100.255 15.1823L99.8443 15.4677C100.205 15.9864 100.603 16.5423 101.039 17.1355L101.442 16.8395ZM100.255 15.1823C99.8963 14.6668 99.6012 14.2314 99.3691 13.8758L98.9504 14.1492C99.1861 14.5102 99.4842 14.9499 99.8443 15.4677L100.255 15.1823ZM99.3691 13.8758C99.253 13.698 99.1684 13.5621 99.1135 13.4664C99.0858 13.418 99.068 13.3839 99.0579 13.3619C99.0528 13.3508 99.0514 13.3465 99.0517 13.3476C99.0519 13.3483 99.0533 13.3525 99.0548 13.3596C99.0561 13.3658 99.0588 13.3803 99.0588 13.4H98.5588C98.5588 13.4468 98.5708 13.4859 98.5769 13.5044C98.5846 13.5275 98.5942 13.5503 98.6037 13.5709C98.6228 13.6124 98.6488 13.6611 98.6796 13.7149C98.7417 13.8233 98.8326 13.9686 98.9504 14.1492L99.3691 13.8758ZM99.0588 13.4C99.0588 13.3709 99.0668 13.3458 99.0982 13.3145L98.7451 12.9605C98.6261 13.0792 98.5588 13.2291 98.5588 13.4H99.0588ZM99.0982 13.3145C99.1296 13.2832 99.155 13.275 99.1848 13.275V12.775C99.0141 12.775 98.8641 12.8418 98.7451 12.9605L99.0982 13.3145ZM99.1848 13.275C99.2584 13.275 99.2775 13.2959 99.2937 13.3243L99.7276 13.0757C99.6101 12.8708 99.412 12.775 99.1848 12.775V13.275ZM99.3077 13.346L102.115 17.246L102.521 16.954L99.7135 13.054L99.3077 13.346ZM102.5 17.2716C103.323 16.3987 103.947 15.4171 104.368 14.3277L103.902 14.1473C103.504 15.1745 102.916 16.1013 102.136 16.9284L102.5 17.2716ZM104.368 14.3277C104.789 13.2398 104.999 12.0966 104.999 10.9H104.499C104.499 12.0367 104.3 13.1186 103.902 14.1473L104.368 14.3277ZM104.999 10.9C104.999 9.6167 104.75 8.40334 104.251 7.26235L103.793 7.46265C104.263 8.53834 104.499 9.68328 104.499 10.9H104.999ZM104.251 7.26235C103.755 6.12637 103.081 5.13339 102.231 4.2855L101.878 4.6395C102.682 5.44162 103.321 6.38195 103.793 7.46265L104.251 7.26235ZM102.231 4.2855C101.381 3.43761 100.386 2.76607 99.2469 2.27075L99.0475 2.72925C100.131 3.2006 101.074 3.83738 101.878 4.6395L102.231 4.2855ZM99.2469 2.27075C98.1032 1.77326 96.887 1.525 95.6007 1.525V2.025C96.8208 2.025 97.9689 2.26007 99.0475 2.72925L99.2469 2.27075ZM95.6007 1.525C94.3143 1.525 93.0981 1.77326 91.9544 2.27075L92.1538 2.72925C93.2325 2.26007 94.3806 2.025 95.6007 2.025V1.525ZM91.9544 2.27075C90.8157 2.76607 89.8202 3.43761 88.9701 4.2855L89.3232 4.6395C90.1274 3.83738 91.0702 3.2006 92.1538 2.72925L91.9544 2.27075ZM88.9701 4.2855C88.1201 5.13339 87.4468 6.12637 86.9501 7.26235L87.4082 7.46265C87.8807 6.38195 88.5191 5.44162 89.3232 4.6395L88.9701 4.2855ZM86.9501 7.26235C86.4513 8.40334 86.2023 9.6167 86.2023 10.9H86.7023C86.7023 9.68328 86.938 8.53834 87.4082 7.46265L86.9501 7.26235ZM86.2023 10.9C86.2023 12.1833 86.4513 13.3967 86.9501 14.5376L87.4082 14.3374C86.938 13.2617 86.7023 12.1167 86.7023 10.9H86.2023ZM86.9501 14.5376C87.4468 15.6736 88.1201 16.6666 88.9701 17.5145L89.3232 17.1605C88.5191 16.3584 87.8807 15.418 87.4082 14.3374L86.9501 14.5376ZM88.9701 17.5145C89.8202 18.3624 90.8157 19.0339 91.9544 19.5293L92.1538 19.0707C91.0702 18.5994 90.1274 17.9626 89.3232 17.1605L88.9701 17.5145ZM91.9544 19.5293C93.0981 20.0267 94.3143 20.275 95.6007 20.275V19.775C94.3806 19.775 93.2325 19.5399 92.1538 19.0707L91.9544 19.5293ZM95.6007 20.275C96.3397 20.275 97.0623 20.185 97.7679 20.0047L97.6442 19.5203C96.9796 19.69 96.2986 19.775 95.6007 19.775V20.275ZM97.7679 20.0047C98.466 19.8264 99.147 19.5929 99.8108 19.3043L99.6115 18.8457C98.972 19.1238 98.3162 19.3486 97.6442 19.5203L97.7679 20.0047ZM99.919 18.9361C99.8476 18.8293 99.6971 18.6237 99.4723 18.3248L99.0727 18.6252C99.2991 18.9263 99.441 19.1207 99.5033 19.2139L99.919 18.9361ZM99.4723 18.3248C99.2482 18.0267 98.9904 17.6742 98.6988 17.2669L98.2923 17.5581C98.5855 17.9675 98.8457 18.3233 99.0727 18.6252L99.4723 18.3248ZM98.6988 17.2669C98.4063 16.8585 98.1013 16.4334 97.7837 15.9916L97.3777 16.2834C97.6951 16.725 98 17.1499 98.2923 17.5581L98.6988 17.2669ZM97.7837 15.9916C97.4667 15.5505 97.1705 15.1345 96.8954 14.7436L96.4865 15.0314C96.7627 15.4238 97.0598 15.8412 97.3777 16.2834L97.7837 15.9916ZM96.8954 14.7436C96.6205 14.3531 96.3966 14.0263 96.2231 13.7626L95.8054 14.0374C95.9828 14.3071 96.21 14.6385 96.4865 15.0314L96.8954 14.7436ZM96.2231 13.7626C96.1366 13.6312 96.0748 13.5311 96.0355 13.4601C96.0157 13.4243 96.004 13.4002 95.9979 13.3858C95.9876 13.3614 96.001 13.3828 96.001 13.425H95.501C95.501 13.4922 95.5254 13.5522 95.5371 13.5798C95.5529 13.6175 95.5741 13.659 95.5982 13.7024C95.6466 13.7898 95.7164 13.9021 95.8054 14.0374L96.2231 13.7626ZM96.001 13.425C96.001 13.3946 96.0102 13.3609 96.0494 13.3175L95.6782 12.9825C95.567 13.1057 95.501 13.2554 95.501 13.425H96.001ZM96.0494 13.3175C96.075 13.2891 96.1025 13.275 96.1521 13.275V12.775C95.9677 12.775 95.803 12.8442 95.6782 12.9825L96.0494 13.3175ZM96.1521 13.275C96.2257 13.275 96.2447 13.2959 96.261 13.3243L96.6948 13.0757C96.5774 12.8708 96.3792 12.775 96.1521 12.775V13.275ZM96.2637 13.3289C96.3204 13.4232 96.491 13.6668 96.7637 14.046L97.1696 13.754C96.8909 13.3665 96.7356 13.1434 96.6921 13.0711L96.2637 13.3289ZM96.7637 14.046C97.039 14.4287 97.3687 14.8908 97.7528 15.4322L98.1606 15.1428C97.7761 14.6009 97.4457 14.1379 97.1696 13.754L96.7637 14.046ZM97.7528 15.4322C98.1373 15.9741 98.5468 16.5493 98.9814 17.1578L99.3883 16.8672C98.9539 16.2591 98.5447 15.6843 98.1606 15.1428L97.7528 15.4322ZM98.9814 17.1578C99.4157 17.766 99.8167 18.3284 100.184 18.8449L100.592 18.5551C100.224 18.0383 99.8228 17.4756 99.3883 16.8672L98.9814 17.1578ZM100.184 18.8449C100.551 19.3602 100.854 19.7993 101.094 20.1628L101.511 19.8872C101.267 19.5173 100.96 19.0732 100.592 18.5551L100.184 18.8449ZM101.094 20.1628C101.215 20.3453 101.303 20.4838 101.361 20.5795C101.391 20.6278 101.41 20.662 101.422 20.6839C101.427 20.6952 101.429 20.6994 101.429 20.6983C101.428 20.6978 101.426 20.6926 101.424 20.6841C101.422 20.6784 101.416 20.656 101.416 20.625H101.916C101.916 20.5671 101.896 20.5195 101.892 20.5111C101.884 20.4913 101.875 20.4714 101.865 20.4536C101.846 20.4172 101.82 20.3722 101.789 20.3205C101.726 20.2162 101.633 20.0713 101.511 19.8872L101.094 20.1628ZM101.416 20.625C101.416 20.6542 101.408 20.6792 101.377 20.7105L101.73 21.0645C101.849 20.9458 101.916 20.7959 101.916 20.625H101.416ZM101.377 20.7105C101.345 20.7418 101.32 20.75 101.29 20.75V21.25C101.461 21.25 101.611 21.1832 101.73 21.0645L101.377 20.7105ZM101.29 20.75C101.284 20.75 101.24 20.7464 101.153 20.6605L100.8 21.0145C100.931 21.1453 101.096 21.25 101.29 21.25V20.75ZM101.153 20.6605C101.056 20.5634 100.961 20.4496 100.868 20.3181L100.46 20.6069C100.567 20.7587 100.68 20.8949 100.8 21.0145L101.153 20.6605ZM100.868 20.3181C100.769 20.1791 100.675 20.0402 100.585 19.9014L100.166 20.1736C100.259 20.3181 100.357 20.4626 100.46 20.6069L100.868 20.3181ZM100.585 19.9014C100.494 19.7607 100.425 19.6509 100.377 19.5711L99.9481 19.8289C100 19.9158 100.073 20.031 100.166 20.1736L100.585 19.9014ZM100.047 19.4784C99.3623 19.8359 98.6456 20.108 97.8962 20.2949L98.0172 20.7801C98.805 20.5836 99.5587 20.2974 100.278 19.9216L100.047 19.4784ZM97.8962 20.2949C97.1476 20.4816 96.3826 20.575 95.6007 20.575V21.075C96.4228 21.075 97.2285 20.9767 98.0172 20.7801L97.8962 20.2949ZM95.6007 20.575C94.2457 20.575 92.9845 20.3228 91.8144 19.8203L91.6171 20.2797C92.8532 20.8105 94.1819 21.075 95.6007 21.075V20.575ZM91.8144 19.8203C90.6398 19.3158 89.6183 18.6254 88.7476 17.7488L88.3929 18.1012C89.3101 19.0246 90.3856 19.7508 91.6171 20.2797L91.8144 19.8203ZM88.7476 17.7488C87.8764 16.8717 87.1878 15.8481 86.6819 14.6759L86.2228 14.8741C86.7528 16.1019 87.4762 17.1783 88.3929 18.1012L88.7476 17.7488ZM86.6819 14.6759C86.1782 13.509 85.9253 12.2513 85.9253 10.9H85.4253C85.4253 12.3154 85.6905 13.641 86.2228 14.8741L86.6819 14.6759ZM85.9253 10.9C85.9253 9.56582 86.178 8.31637 86.6819 7.14908L86.2228 6.95092C85.6907 8.18364 85.4253 9.50084 85.4253 10.9H85.9253ZM86.6819 7.14908C87.1876 5.97741 87.88 4.95405 88.7593 4.077L88.4062 3.723C87.4809 4.64596 86.753 5.72258 86.2228 6.95092L86.6819 7.14908ZM88.7593 4.077C89.6386 3.19995 90.6646 2.50925 91.8395 2.00471L91.6422 1.54529C90.4108 2.07409 89.3315 2.80004 88.4062 3.723L88.7593 4.077ZM91.8395 2.00471C93.0099 1.50205 94.2628 1.25 95.6007 1.25V0.75C94.1982 0.75 92.8779 1.01461 91.6422 1.54529L91.8395 2.00471ZM95.6007 1.25C96.9385 1.25 98.1958 1.50205 99.375 2.00496L99.5711 1.54504C98.3274 1.01461 97.0032 0.75 95.6007 0.75V1.25ZM99.375 2.00496C100.559 2.50977 101.589 3.1966 102.468 4.06532L102.819 3.70968C101.894 2.79506 100.81 2.07357 99.5711 1.54504L99.375 2.00496ZM102.468 4.06532C103.346 4.93347 104.039 5.95624 104.544 7.136L105.004 6.939C104.474 5.70208 103.745 4.62488 102.819 3.70968L102.468 4.06532ZM104.544 7.136C105.048 8.31198 105.301 9.56582 105.301 10.9H105.801C105.801 9.50083 105.536 8.1797 105.004 6.939L104.544 7.136ZM119.735 16.05C119.735 16.6844 119.616 17.2849 119.378 17.8536L119.839 18.0464C120.103 17.4151 120.235 16.7489 120.235 16.05H119.735ZM119.378 17.8536C119.139 18.4251 118.81 18.9231 118.39 19.3497L118.747 19.7003C119.213 19.2269 119.577 18.6749 119.839 18.0464L119.378 17.8536ZM118.39 19.3497C117.97 19.7769 117.478 20.1176 116.912 20.372L117.117 20.828C117.738 20.549 118.282 20.1731 118.747 19.7003L118.39 19.3497ZM116.912 20.372C116.352 20.6238 115.756 20.75 115.122 20.75V21.25C115.825 21.25 116.491 21.1096 117.117 20.828L116.912 20.372ZM115.122 20.75H113.192V21.25H115.122V20.75ZM113.192 20.75C112.54 20.75 111.93 20.6271 111.361 20.3828L111.164 20.8422C111.798 21.1146 112.475 21.25 113.192 21.25V20.75ZM111.361 20.3828C110.788 20.1366 110.288 19.8 109.86 19.373L109.507 19.727C109.981 20.2 110.534 20.5717 111.164 20.8422L111.361 20.3828ZM109.86 19.373C109.432 18.946 109.095 18.4476 108.848 17.8759L108.389 18.0741C108.66 18.7024 109.033 19.254 109.507 19.727L109.86 19.373ZM108.848 17.8759C108.603 17.3086 108.48 16.7008 108.48 16.05H107.98C107.98 16.7658 108.116 17.4414 108.389 18.0741L108.848 17.8759ZM108.48 16.05V1.375H107.98V16.05H108.48ZM108.48 1.375C108.48 1.34585 108.488 1.32083 108.519 1.2895L108.166 0.935498C108.047 1.05417 107.98 1.20415 107.98 1.375H108.48ZM108.519 1.2895C108.55 1.25817 108.576 1.25 108.606 1.25V0.75C108.435 0.75 108.285 0.816828 108.166 0.935498L108.519 1.2895ZM108.606 1.25C108.636 1.25 108.661 1.25817 108.692 1.2895L109.045 0.935498C108.926 0.816828 108.776 0.75 108.606 0.75V1.25ZM108.692 1.2895C108.724 1.32083 108.732 1.34585 108.732 1.375H109.232C109.232 1.20415 109.164 1.05417 109.045 0.935498L108.692 1.2895ZM108.732 1.375V16.05H109.232V1.375H108.732ZM108.732 16.05C108.732 16.6509 108.851 17.223 109.092 17.7639L109.549 17.5611C109.337 17.0853 109.232 16.5824 109.232 16.05H108.732ZM109.092 17.7639C109.329 18.2997 109.652 18.7713 110.058 19.177L110.411 18.823C110.049 18.462 109.762 18.042 109.549 17.5611L109.092 17.7639ZM110.058 19.177C110.465 19.5827 110.938 19.9041 111.475 20.1412L111.677 19.6838C111.195 19.4709 110.773 19.184 110.411 18.823L110.058 19.177ZM111.475 20.1412C112.017 20.3805 112.59 20.5 113.192 20.5V20C112.658 20 112.154 19.8945 111.677 19.6838L111.475 20.1412ZM113.192 20.5H115.122V20H113.192V20.5ZM115.122 20.5C115.725 20.5 116.294 20.3805 116.829 20.1406L116.624 19.6844C116.156 19.8945 115.656 20 115.122 20V20.5ZM116.829 20.1406C117.358 19.9029 117.82 19.5804 118.21 19.173L117.849 18.827C117.505 19.1863 117.097 19.4721 116.624 19.6844L116.829 20.1406ZM118.21 19.173C118.599 18.7671 118.908 18.2956 119.137 17.7607L118.677 17.5643C118.471 18.046 118.195 18.4663 117.849 18.827L118.21 19.173ZM119.137 17.7607C119.368 17.2206 119.483 16.6496 119.483 16.05H118.983C118.983 16.5838 118.881 17.0878 118.677 17.5643L119.137 17.7607ZM119.483 16.05V1.375H118.983V16.05H119.483ZM119.483 1.375C119.483 1.34585 119.491 1.32083 119.522 1.2895L119.169 0.935498C119.05 1.05417 118.983 1.20415 118.983 1.375H119.483ZM119.522 1.2895C119.554 1.25817 119.579 1.25 119.609 1.25V0.75C119.438 0.75 119.288 0.816828 119.169 0.935498L119.522 1.2895ZM119.609 1.25C119.639 1.25 119.664 1.25817 119.695 1.2895L120.048 0.935498C119.93 0.816828 119.779 0.75 119.609 0.75V1.25ZM119.695 1.2895C119.727 1.32083 119.735 1.34585 119.735 1.375H120.235C120.235 1.20415 120.167 1.05417 120.048 0.935498L119.695 1.2895ZM119.735 1.375V16.05H120.235V1.375H119.735ZM136.324 20.575C136.324 20.6151 136.312 20.6603 136.272 20.7152L136.676 21.0098C136.769 20.8813 136.824 20.7349 136.824 20.575H136.324ZM136.272 20.7152C136.254 20.74 136.238 20.75 136.198 20.75V21.25C136.392 21.25 136.56 21.1683 136.676 21.0098L136.272 20.7152ZM136.198 20.75H123.917V21.25H136.198V20.75ZM123.917 20.75C123.867 20.75 123.84 20.7359 123.814 20.7075L123.443 21.0425C123.568 21.1808 123.732 21.25 123.917 21.25V20.75ZM123.814 20.7075C123.782 20.6721 123.766 20.6325 123.766 20.575H123.266C123.266 20.7509 123.324 20.9113 123.443 21.0425L123.814 20.7075ZM123.766 20.575V1.375H123.266V20.575H123.766ZM123.766 1.375C123.766 1.32643 123.779 1.30989 123.797 1.29541L123.485 0.904588C123.336 1.02345 123.266 1.19024 123.266 1.375H123.766ZM123.797 1.29541C123.839 1.26158 123.877 1.25 123.917 1.25V0.75C123.756 0.75 123.61 0.805088 123.485 0.904588L123.797 1.29541ZM123.917 1.25H136.198V0.75H123.917V1.25ZM136.198 1.25C136.228 1.25 136.253 1.25817 136.285 1.2895L136.638 0.935498C136.519 0.816828 136.369 0.75 136.198 0.75V1.25ZM136.285 1.2895C136.316 1.32083 136.324 1.34585 136.324 1.375H136.824C136.824 1.20415 136.757 1.05417 136.638 0.935498L136.285 1.2895ZM136.324 1.375C136.324 1.40415 136.316 1.42917 136.285 1.4605L136.638 1.8145C136.757 1.69583 136.824 1.54585 136.824 1.375H136.324ZM136.285 1.4605C136.253 1.49183 136.228 1.5 136.198 1.5V2C136.369 2 136.519 1.93317 136.638 1.8145L136.285 1.4605ZM136.198 1.5H124.268V2H136.198V1.5ZM124.018 1.75V9.525H124.518V1.75H124.018ZM124.268 9.775H133.566V9.275H124.268V9.775ZM133.566 9.775C133.596 9.775 133.621 9.78317 133.653 9.8145L134.006 9.4605C133.887 9.34183 133.737 9.275 133.566 9.275V9.775ZM133.653 9.8145C133.684 9.84583 133.692 9.87085 133.692 9.9H134.192C134.192 9.72915 134.125 9.57917 134.006 9.4605L133.653 9.8145ZM133.692 9.9C133.692 9.92915 133.684 9.95417 133.653 9.9855L134.006 10.3395C134.125 10.2208 134.192 10.0709 134.192 9.9H133.692ZM133.653 9.9855C133.621 10.0168 133.596 10.025 133.566 10.025V10.525C133.737 10.525 133.887 10.4582 134.006 10.3395L133.653 9.9855ZM133.566 10.025H124.318V10.525H133.566V10.025ZM124.068 10.2713L124.043 11.9713L124.543 11.9787L124.568 10.2787L124.068 10.2713ZM124.293 12.225H133.667V11.725H124.293V12.225ZM133.667 12.225C133.762 12.225 133.787 12.2486 133.791 12.252C133.794 12.2553 133.818 12.2804 133.818 12.375H134.318C134.318 12.203 134.274 12.0281 134.144 11.898C134.014 11.7681 133.839 11.725 133.667 11.725V12.225ZM133.818 12.375C133.818 12.3967 133.811 12.4275 133.766 12.473L134.119 12.827C134.24 12.7059 134.318 12.5533 134.318 12.375H133.818ZM133.766 12.473C133.72 12.5185 133.689 12.525 133.667 12.525V13.025C133.845 13.025 133.997 12.9482 134.119 12.827L133.766 12.473ZM133.667 12.525H124.268V13.025H133.667V12.525ZM124.018 12.775V20.15H124.518V12.775H124.018ZM124.268 20.4H136.198V19.9H124.268V20.4ZM136.198 20.4C136.209 20.4 136.23 20.4005 136.268 20.4461L136.654 20.1289C136.541 19.9911 136.387 19.9 136.198 19.9V20.4ZM136.268 20.4461C136.313 20.5017 136.324 20.5431 136.324 20.575H136.824C136.824 20.4069 136.759 20.2567 136.654 20.1289L136.268 20.4461Z" fill="#C8A985"/>
</svg>
