<svg width="136" height="20" viewBox="0 0 136 20" fill="none" xmlns="http://www.w3.org/2000/svg">
<path fill-rule="evenodd" clip-rule="evenodd" d="M8.47161 20V17.725H0L9.29872 1V16.9H11.4793V17.725H9.29872V20H8.47161ZM8.47161 16.9V3.875L1.22813 16.9H8.47161ZM28.0465 14.425C28.0465 15.1917 27.9003 15.9125 27.6079 16.5875C27.3155 17.2625 26.9187 17.85 26.4174 18.35C25.9161 18.85 25.3271 19.2458 24.6504 19.5375C23.9736 19.8292 23.251 19.975 22.4823 19.975H16.9181C16.7845 19.975 16.6884 19.925 16.6299 19.825C16.5714 19.725 16.5422 19.6167 16.5422 19.5V0.75H14.888V19.625C14.888 19.7417 14.842 19.8333 14.7501 19.9C14.6582 19.9667 14.5621 20 14.4619 20C14.3616 20 14.2697 19.9625 14.1862 19.8875C14.1026 19.8125 14.0609 19.725 14.0609 19.625V0.375C14.0609 0.124999 14.1945 0 14.4619 0H22.0061C22.6745 0 23.3053 0.124999 23.8985 0.375C24.4916 0.625001 25.0054 0.970831 25.4399 1.4125C25.8743 1.85417 26.221 2.36666 26.48 2.95C26.739 3.53334 26.8685 4.15833 26.8685 4.825C26.8685 5.74167 26.6304 6.5875 26.1542 7.3625C25.678 8.1375 25.0138 8.725 24.1616 9.125C24.7297 9.30833 25.2561 9.575 25.7407 9.925C26.2252 10.275 26.6346 10.6833 26.9688 11.15C27.303 11.6167 27.5661 12.1292 27.7583 12.6875C27.9505 13.2458 28.0465 13.825 28.0465 14.425ZM26.0915 4.825C26.0915 4.25833 25.9829 3.72917 25.7657 3.2375C25.5485 2.74583 25.2561 2.31667 24.8885 1.95C24.5209 1.58333 24.0906 1.29167 23.5977 1.075C23.1048 0.858332 22.5742 0.75 22.0061 0.75H17.269V8.875H22.0061C22.5575 8.875 23.0839 8.76667 23.5852 8.55C24.0864 8.33333 24.5209 8.04167 24.8885 7.675C25.2561 7.30833 25.5485 6.87917 25.7657 6.3875C25.9829 5.89583 26.0915 5.375 26.0915 4.825ZM27.2696 14.425C27.2696 13.775 27.1442 13.1583 26.8936 12.575C26.643 11.9917 26.3004 11.4833 25.866 11.05C25.4315 10.6167 24.9219 10.275 24.3371 10.025C23.7522 9.775 23.134 9.65 22.4823 9.65C22.4155 9.65 22.3737 9.64167 22.357 9.625H17.269V19.225H22.4823C23.1507 19.225 23.7731 19.1 24.3496 18.85C24.9261 18.6 25.4315 18.2583 25.866 17.825C26.3004 17.3917 26.643 16.8833 26.8936 16.3C27.1442 15.7167 27.2696 15.0917 27.2696 14.425ZM49.9994 10C49.9994 11.3833 49.7362 12.6833 49.2099 13.9C48.6835 15.1167 47.9692 16.175 47.0669 17.075C46.1646 17.975 45.1036 18.6875 43.8838 19.2125C42.664 19.7375 41.3607 20 39.9738 20C38.587 20 37.2836 19.7375 36.0639 19.2125C34.8441 18.6875 33.783 17.975 32.8807 17.075C31.9784 16.175 31.2641 15.1167 30.7378 13.9C30.2114 12.6833 29.9483 11.3833 29.9483 10C29.9483 8.61666 30.2114 7.31667 30.7378 6.1C31.2641 4.88333 31.9784 3.825 32.8807 2.925C33.783 2.025 34.8441 1.3125 36.0639 0.7875C37.2836 0.262497 38.587 0 39.9738 0C41.3607 0 42.664 0.262497 43.8838 0.7875C45.1036 1.3125 46.1646 2.025 47.0669 2.925C47.9692 3.825 48.6835 4.88333 49.2099 6.1C49.7362 7.31667 49.9994 8.61666 49.9994 10ZM48.4956 6.425C48.011 5.30833 47.3468 4.32917 46.503 3.4875C45.6592 2.64583 44.6775 1.98334 43.558 1.5C42.4384 1.01666 41.2437 0.775 39.9738 0.775C38.7039 0.775 37.5092 1.01666 36.3897 1.5C35.2702 1.98334 34.2885 2.64583 33.4447 3.4875C32.6009 4.32917 31.9367 5.30833 31.4521 6.425C30.9675 7.54167 30.7252 8.73333 30.7252 10C30.7252 11.2667 30.9675 12.4583 31.4521 13.575C31.9367 14.6917 32.6009 15.6708 33.4447 16.5125C34.2885 17.3542 35.2702 18.0167 36.3897 18.5C37.5092 18.9833 38.7039 19.225 39.9738 19.225C41.2437 19.225 42.4384 18.9833 43.558 18.5C44.6775 18.0167 45.6592 17.3542 46.503 16.5125C47.3468 15.6708 48.011 14.6917 48.4956 13.575C48.9801 12.4583 49.2224 11.2667 49.2224 10C49.2224 8.73333 48.9801 7.54167 48.4956 6.425ZM64.3328 15.05C64.3328 15.7167 64.2075 16.35 63.9569 16.95C63.7062 17.55 63.3595 18.075 62.9167 18.525C62.4739 18.975 61.9559 19.3333 61.3628 19.6C60.7696 19.8667 60.1388 20 59.4704 20H57.5405C56.8554 20 56.2121 19.8708 55.6106 19.6125C55.0091 19.3542 54.4827 19 54.0316 18.55C53.5804 18.1 53.2253 17.575 52.9663 16.975C52.7074 16.375 52.5779 15.7333 52.5779 15.05V0.375C52.5779 0.274999 52.6154 0.1875 52.6906 0.1125C52.7658 0.0374996 52.8536 0 52.9538 0C53.0541 0 53.1418 0.0374996 53.217 0.1125C53.2922 0.1875 53.3298 0.274999 53.3298 0.375V15.05C53.3298 15.6167 53.4426 16.1542 53.6681 16.6625C53.8937 17.1708 54.1987 17.6167 54.583 18C54.9673 18.3833 55.4143 18.6875 55.9239 18.9125C56.4335 19.1375 56.9724 19.25 57.5405 19.25H59.4704C60.0386 19.25 60.5732 19.1375 61.0745 18.9125C61.5758 18.6875 62.0102 18.3833 62.3778 18C62.7455 17.6167 63.0379 17.1708 63.2551 16.6625C63.4723 16.1542 63.5809 15.6167 63.5809 15.05V0.375C63.5809 0.274999 63.6185 0.1875 63.6937 0.1125C63.7689 0.0374996 63.8566 0 63.9569 0C64.0571 0 64.1449 0.0374996 64.22 0.1125C64.2952 0.1875 64.3328 0.274999 64.3328 0.375V15.05ZM79.2678 0.375C79.2678 0.475001 79.2302 0.5625 79.155 0.6375C79.0798 0.7125 78.9921 0.75 78.8918 0.75H66.5604C66.4601 0.75 66.3724 0.7125 66.2972 0.6375C66.222 0.5625 66.1844 0.475001 66.1844 0.375C66.1844 0.274999 66.222 0.1875 66.2972 0.1125C66.3724 0.0374996 66.4601 0 66.5604 0H78.8918C78.9921 0 79.0798 0.0374996 79.155 0.1125C79.2302 0.1875 79.2678 0.274999 79.2678 0.375ZM79.3931 2.8C79.3931 2.9 79.3555 2.99167 79.2803 3.075C79.2051 3.15833 79.1174 3.2 79.0172 3.2H73.2023V19.625C73.2023 19.725 73.1606 19.8125 73.077 19.8875C72.9935 19.9625 72.9016 20 72.8013 20C72.701 20 72.6092 19.9667 72.5256 19.9C72.4421 19.8333 72.4003 19.7417 72.4003 19.625V3.2H66.5604C66.4601 3.2 66.3724 3.15833 66.2972 3.075C66.222 2.99167 66.1844 2.9 66.1844 2.8C66.1844 2.7 66.2178 2.60417 66.2847 2.5125C66.3515 2.42083 66.4434 2.375 66.5604 2.375H79.0172C79.1341 2.375 79.226 2.42083 79.2929 2.5125C79.3597 2.60417 79.3931 2.7 79.3931 2.8ZM82.0217 19.625C82.0217 19.7417 81.9799 19.8333 81.8964 19.9C81.8128 19.9667 81.7209 20 81.6207 20C81.5204 20 81.4327 19.9625 81.3575 19.8875C81.2823 19.8125 81.2447 19.725 81.2447 19.625V0.375C81.2447 0.274999 81.2823 0.1875 81.3575 0.1125C81.4327 0.0374996 81.5204 0 81.6207 0C81.7209 0 81.8128 0.033333 81.8964 0.1C81.9799 0.166667 82.0217 0.258333 82.0217 0.375V19.625ZM104.551 9.9C104.551 12.5333 103.632 14.8167 101.794 16.75C101.861 16.85 102.003 17.0458 102.22 17.3375C102.437 17.6292 102.659 17.9292 102.884 18.2375C103.11 18.5458 103.31 18.8375 103.486 19.1125C103.661 19.3875 103.749 19.5583 103.749 19.625C103.749 19.725 103.711 19.8125 103.636 19.8875C103.561 19.9625 103.473 20 103.373 20C103.223 20 103.114 19.95 103.047 19.85C102.964 19.7333 102.776 19.475 102.483 19.075C102.191 18.675 101.852 18.2083 101.468 17.675C101.084 17.1417 100.674 16.5792 100.24 15.9875C99.8056 15.3958 99.4088 14.8417 99.0495 14.325C98.6903 13.8083 98.3937 13.3708 98.1597 13.0125C97.9258 12.6542 97.8088 12.45 97.8088 12.4C97.8088 12.3 97.8464 12.2125 97.9216 12.1375C97.9968 12.0625 98.0845 12.025 98.1848 12.025C98.3352 12.025 98.4438 12.0833 98.5106 12.2L101.318 16.1C102.12 15.25 102.726 14.2958 103.135 13.2375C103.544 12.1792 103.749 11.0667 103.749 9.9C103.749 8.64999 103.507 7.47084 103.022 6.3625C102.538 5.25416 101.882 4.2875 101.055 3.4625C100.228 2.6375 99.2584 1.98334 98.1472 1.5C97.036 1.01666 95.8539 0.775 94.6007 0.775C93.3475 0.775 92.1653 1.01666 91.0541 1.5C89.9429 1.98334 88.9738 2.6375 88.1467 3.4625C87.3196 4.2875 86.6638 5.25416 86.1792 6.3625C85.6946 7.47084 85.4523 8.64999 85.4523 9.9C85.4523 11.15 85.6946 12.3292 86.1792 13.4375C86.6638 14.5458 87.3196 15.5125 88.1467 16.3375C88.9738 17.1625 89.9429 17.8167 91.0541 18.3C92.1653 18.7833 93.3475 19.025 94.6007 19.025C95.3192 19.025 96.021 18.9375 96.706 18.7625C97.3911 18.5875 98.0595 18.3583 98.7111 18.075C98.6443 17.975 98.4981 17.775 98.2725 17.475C98.047 17.175 97.788 16.8208 97.4955 16.4125C97.2031 16.0042 96.8982 15.5792 96.5807 15.1375C96.2632 14.6958 95.9666 14.2792 95.6909 13.8875C95.4152 13.4958 95.1897 13.1667 95.0142 12.9C94.8388 12.6333 94.751 12.475 94.751 12.425C94.751 12.325 94.7886 12.2333 94.8638 12.15C94.939 12.0667 95.0351 12.025 95.1521 12.025C95.3025 12.025 95.4111 12.0833 95.4779 12.2C95.528 12.2833 95.6909 12.5167 95.9666 12.9C96.2423 13.2833 96.5724 13.7458 96.9567 14.2875C97.341 14.8292 97.7504 15.4042 98.1848 16.0125C98.6192 16.6208 99.0203 17.1833 99.3879 17.7C99.7555 18.2167 100.06 18.6583 100.303 19.025C100.545 19.3917 100.666 19.5917 100.666 19.625C100.666 19.725 100.629 19.8125 100.553 19.8875C100.478 19.9625 100.39 20 100.29 20C100.19 20 100.085 19.9458 99.9769 19.8375C99.8683 19.7292 99.7638 19.6042 99.6636 19.4625C99.5633 19.3208 99.4672 19.1792 99.3753 19.0375C99.2834 18.8958 99.2124 18.7833 99.1623 18.7C98.4605 19.0667 97.7253 19.3458 96.9567 19.5375C96.188 19.7292 95.4027 19.825 94.6007 19.825C93.2138 19.825 91.9188 19.5667 90.7158 19.05C89.5127 18.5333 88.4642 17.825 87.5702 16.925C86.6763 16.025 85.9703 14.975 85.4523 13.775C84.9343 12.575 84.6753 11.2833 84.6753 9.9C84.6753 8.53333 84.9343 7.25001 85.4523 6.05C85.9703 4.84999 86.6805 3.8 87.5828 2.9C88.4851 2 89.5377 1.29167 90.7408 0.775C91.9439 0.258331 93.2305 0 94.6007 0C95.9708 0 97.2616 0.258331 98.473 0.775C99.6845 1.29167 100.741 1.99583 101.644 2.8875C102.546 3.77917 103.256 4.82916 103.774 6.0375C104.292 7.24584 104.551 8.53333 104.551 9.9ZM118.985 15.05C118.985 15.7167 118.859 16.35 118.609 16.95C118.358 17.55 118.011 18.075 117.569 18.525C117.126 18.975 116.608 19.3333 116.015 19.6C115.421 19.8667 114.791 20 114.122 20H112.192C111.507 20 110.864 19.8708 110.262 19.6125C109.661 19.3542 109.135 19 108.683 18.55C108.232 18.1 107.877 17.575 107.618 16.975C107.359 16.375 107.23 15.7333 107.23 15.05V0.375C107.23 0.274999 107.267 0.1875 107.343 0.1125C107.418 0.0374996 107.505 0 107.606 0C107.706 0 107.794 0.0374996 107.869 0.1125C107.944 0.1875 107.982 0.274999 107.982 0.375V15.05C107.982 15.6167 108.094 16.1542 108.32 16.6625C108.546 17.1708 108.851 17.6167 109.235 18C109.619 18.3833 110.066 18.6875 110.576 18.9125C111.085 19.1375 111.624 19.25 112.192 19.25H114.122C114.69 19.25 115.225 19.1375 115.726 18.9125C116.228 18.6875 116.662 18.3833 117.03 18C117.397 17.6167 117.69 17.1708 117.907 16.6625C118.124 16.1542 118.233 15.6167 118.233 15.05V0.375C118.233 0.274999 118.27 0.1875 118.346 0.1125C118.421 0.0374996 118.509 0 118.609 0C118.709 0 118.797 0.0374996 118.872 0.1125C118.947 0.1875 118.985 0.274999 118.985 0.375V15.05ZM135.574 19.575C135.574 19.675 135.54 19.7708 135.474 19.8625C135.407 19.9542 135.315 20 135.198 20H122.917C122.8 20 122.704 19.9583 122.628 19.875C122.553 19.7917 122.516 19.6917 122.516 19.575V0.375C122.516 0.258333 122.557 0.166667 122.641 0.1C122.724 0.033333 122.816 0 122.917 0H135.198C135.298 0 135.386 0.0374996 135.461 0.1125C135.536 0.1875 135.574 0.274999 135.574 0.375C135.574 0.475001 135.536 0.5625 135.461 0.6375C135.386 0.7125 135.298 0.75 135.198 0.75H123.268V8.525H132.566C132.667 8.525 132.754 8.5625 132.829 8.6375C132.905 8.7125 132.942 8.8 132.942 8.9C132.942 9 132.905 9.0875 132.829 9.1625C132.754 9.2375 132.667 9.275 132.566 9.275H123.318L123.293 10.975H132.667C132.934 10.975 133.068 11.1083 133.068 11.375C133.068 11.475 133.026 11.5667 132.942 11.65C132.859 11.7333 132.767 11.775 132.667 11.775H123.268V19.15H135.198C135.298 19.15 135.386 19.1958 135.461 19.2875C135.536 19.3792 135.574 19.475 135.574 19.575Z" fill="black"/>
</svg>
