<svg width="15" height="15" viewBox="0 0 15 15" fill="none" xmlns="http://www.w3.org/2000/svg">
<path fill-rule="evenodd" clip-rule="evenodd" d="M10.9318 10.2558L15 14.3241L14.3241 15L10.2558 10.9318C7.81478 13.0277 4.1325 12.9193 1.81981 10.6066C-0.606602 8.18019 -0.606602 4.24621 1.81981 1.81981C4.24621 -0.606602 8.18019 -0.606602 10.6066 1.81981C12.9193 4.1325 13.0277 7.81478 10.9318 10.2558ZM9.93069 9.93069C11.9838 7.87758 11.9838 4.54883 9.93069 2.49571C7.87758 0.442599 4.54883 0.442599 2.49571 2.49571C0.442599 4.54883 0.442599 7.87758 2.49571 9.93069C4.54883 11.9838 7.87758 11.9838 9.93069 9.93069Z" fill="black"/>
</svg>
